<svg xmlns="http://www.w3.org/2000/svg" width="117.178" height="104.972" viewBox="0 0 117.178 104.972">
  <path id="icons8_inbox" d="M92.325,0c-2.685,0-4.151,2.929-4.639,3.662l-21.728,39.3a1.83,1.83,0,0,0-.243,1.221,4.8,4.8,0,0,0,4.639,4.639h44.185a4.637,4.637,0,0,0,4.639-4.639,2.2,2.2,0,0,0-.243-1.221L96.964,3.9C96.476,2.928,95.01,0,92.325,0Zm0,5.369a.865.865,0,0,0,.243.491l21.241,38.082H71.088L92.082,5.86A.865.865,0,0,0,92.325,5.369ZM90.37,17.088a.521.521,0,0,0-.486.486V31.249a.521.521,0,0,0,.486.486h3.91a.521.521,0,0,0,.486-.486V17.575a.521.521,0,0,0-.486-.486ZM19.088,19.53A2.439,2.439,0,0,0,16.771,21.2L2.124,65.14c0,.01,0,.019,0,.029A2.441,2.441,0,0,0,2,65.913v36.618a2.441,2.441,0,0,0,2.441,2.441H111.854a2.441,2.441,0,0,0,2.441-2.441V65.913a2.442,2.442,0,0,0-.129-.772l-.01-.024-3.8-11.41h-5.149l3.257,9.765H75.236A2.441,2.441,0,0,0,72.8,65.912a14.647,14.647,0,1,1-29.295,0,2.441,2.441,0,0,0-2.441-2.441H7.826L20.848,24.412h49.8l2.7-4.882ZM90.37,36.618a.521.521,0,0,0-.486.486v3.91a.521.521,0,0,0,.486.486h3.91a.521.521,0,0,0,.486-.486V37.1a.521.521,0,0,0-.486-.486ZM6.882,68.354H39.114a19.145,19.145,0,0,0,38.068,0h32.232V100.09H6.882Z" transform="translate(-2)" fill="#CC3333"/>
</svg>
