<svg xmlns="http://www.w3.org/2000/svg" xmlns:xlink="http://www.w3.org/1999/xlink" width="25.155" height="25.177" viewBox="0 0 25.155 25.177">
  <defs>
    <clipPath id="clip-path">
      <rect id="Rectangle_578" data-name="Rectangle 578" width="25.155" height="25.177" fill="#429f3d"/>
    </clipPath>
  </defs>
  <g id="Group_931" data-name="Group 931" transform="translate(0 0)">
    <g id="Group_930" data-name="Group 930" transform="translate(0 0)" clip-path="url(#clip-path)">
      <path id="Path_1188" data-name="Path 1188" d="M13.742,19.3c-2.349,0-4.7.007-7.046,0a2.476,2.476,0,0,1-2.365-1.685,2.5,2.5,0,0,1,.746-2.736,2.205,2.205,0,0,1,1.117-.535c.238-.034.293-.118.236-.36Q5.008,8,3.612,2.015c-.066-.286-.186-.345-.449-.34-.74.016-1.482.011-2.223,0A.854.854,0,0,1,0,.832.851.851,0,0,1,.956,0Q2.507,0,4.06,0a.858.858,0,0,1,.978.772c.172.689.362,1.378.48,2.078.071.425.251.515.654.515q8.2-.02,16.4-.007A2.493,2.493,0,0,1,25.1,6.439c-.117.616-.277,1.224-.422,1.834-.448,1.9-.886,3.8-1.352,5.7a2.459,2.459,0,0,1-2.558,1.977q-6.858,0-13.715,0a3.8,3.8,0,0,0-.419.007.835.835,0,0,0-.756.813.844.844,0,0,0,.765.85,3.788,3.788,0,0,0,.418.006H20.65a3.114,3.114,0,0,1,.46.014.836.836,0,0,1,.013,1.649,2.373,2.373,0,0,1-.418.016H13.742m.735-14.265c-2.684,0-5.368,0-8.052-.005-.287,0-.389.035-.312.358q1.031,4.29,2.031,8.586c.05.214.129.3.357.3q6.144-.011,12.288-.007a.865.865,0,0,0,.932-.734c.569-2.415,1.139-4.83,1.694-7.248.194-.845-.145-1.244-1.013-1.245H14.477" transform="translate(0 0)" fill="#429f3d"/>
      <path id="Path_1189" data-name="Path 1189" d="M12.444,24.781a2.517,2.517,0,1,1-2.467-2.545,2.519,2.519,0,0,1,2.467,2.545m-2.528.807a.835.835,0,1,0-.823-.826.841.841,0,0,0,.823.826" transform="translate(-0.698 -2.094)" fill="#429f3d"/>
      <path id="Path_1190" data-name="Path 1190" d="M22.634,24.768a2.517,2.517,0,1,1-2.482-2.532,2.519,2.519,0,0,1,2.482,2.532m-1.681-.024a.836.836,0,1,0-.847.844.846.846,0,0,0,.847-.844" transform="translate(-1.657 -2.094)" fill="#429f3d"/>
    </g>
  </g>
</svg>
