<svg width="23" height="23" viewBox="0 0 23 23" fill="none" xmlns="http://www.w3.org/2000/svg">
<path d="M4.41199 0.893023C5.03699 0.893023 5.66299 0.893023 6.28999 0.893023C6.52604 0.87971 6.76229 0.915403 6.98387 0.997856C7.20545 1.08031 7.40756 1.20774 7.57748 1.37212C7.74741 1.5365 7.88146 1.73428 7.97122 1.953C8.06097 2.17173 8.10447 2.40666 8.09899 2.64302C8.12501 3.90615 8.32523 5.15964 8.69399 6.36802C8.80072 6.68169 8.82111 7.01829 8.75302 7.34255C8.68493 7.66681 8.53087 7.96678 8.30699 8.21102C7.73399 8.91102 7.21499 9.65502 6.66199 10.372C6.61074 10.4288 6.58083 10.5017 6.57736 10.5781C6.5739 10.6545 6.5971 10.7298 6.64299 10.791C7.90869 13.2054 9.87985 15.1769 12.294 16.443C12.3607 16.4902 12.4419 16.5125 12.5233 16.5061C12.6048 16.4997 12.6814 16.465 12.74 16.408C13.457 15.855 14.198 15.332 14.901 14.763C15.1512 14.5458 15.4547 14.3991 15.7803 14.3379C16.106 14.2768 16.442 14.3034 16.754 14.415C17.9068 14.7746 19.1047 14.9692 20.312 14.993C20.5678 14.9716 20.8251 15.0067 21.0658 15.096C21.3064 15.1853 21.5244 15.3266 21.7043 15.5097C21.8842 15.6928 22.0215 15.9133 22.1065 16.1555C22.1914 16.3977 22.222 16.6557 22.196 16.911C22.196 18.097 22.196 19.2827 22.196 20.468C22.223 20.7291 22.1906 20.9929 22.1013 21.2397C22.012 21.4866 21.868 21.71 21.6802 21.8934C21.4924 22.0767 21.2656 22.2153 21.0167 22.2987C20.7679 22.3821 20.5034 22.4082 20.243 22.375C17.3594 22.3565 14.5158 21.699 11.9168 20.4499C9.31774 19.2008 7.02789 17.3911 5.21199 15.151C3.22084 12.7777 1.83887 9.95439 1.18599 6.92602C0.885263 5.57255 0.726405 4.19143 0.711991 2.80502C0.68596 2.54976 0.716639 2.29191 0.801833 2.04988C0.887028 1.80786 1.02464 1.58764 1.20482 1.40497C1.385 1.2223 1.60332 1.08169 1.84415 0.993195C2.08499 0.904694 2.3424 0.870489 2.59799 0.893023C3.20199 0.893023 3.80699 0.893023 4.41199 0.893023Z" fill="#CC3333"/>
</svg>
