<svg xmlns="http://www.w3.org/2000/svg" xmlns:xlink="http://www.w3.org/1999/xlink" width="30.946" height="27.969" viewBox="0 0 30.946 27.969"><defs><clipPath id="a"><rect width="26.734" height="15.705" fill="#499e1c"/></clipPath></defs><g transform="translate(0 14.95) rotate(-34)" clip-path="url(#a)"><path d="M13.323,15.694c-3.546,0-7.092-.023-10.638.01a2.484,2.484,0,0,1-2.68-2.7c.047-.846.008-1.7.008-2.544,0-.79.234-1.024,1.009-1.029a4.263,4.263,0,0,0,.789-.037A1.54,1.54,0,0,0,3.128,7.7a1.584,1.584,0,0,0-1.586-1.42c-.236-.009-.473,0-.709,0a.741.741,0,0,1-.812-.76C.007,4.4-.024,3.286.034,2.177A2.329,2.329,0,0,1,2.46.016c2.211-.01,4.422,0,6.633,0,4.964,0,9.929.024,14.893-.014a2.512,2.512,0,0,1,2.742,2.765c-.051.831-.008,1.668-.009,2.5,0,.761-.241,1-.989,1.009a3.637,3.637,0,0,0-.871.046A1.552,1.552,0,0,0,23.6,7.99a1.582,1.582,0,0,0,1.526,1.438c.263.017.528,0,.792.007a.728.728,0,0,1,.789.737c.016,1.126.052,2.255-.015,3.378a2.333,2.333,0,0,1-2.484,2.142q-5.444.006-10.888,0m-3.075-3.166c.352.03.557-.217.761-.471q1.951-2.441,3.9-4.881,1.08-1.351,2.156-2.7A.778.778,0,0,0,16.3,3.195a1.02,1.02,0,0,0-.574.456L11.82,8.532Q10.753,9.866,9.688,11.2a.78.78,0,0,0-.137.923.716.716,0,0,0,.7.4m-.029-9.35A2.342,2.342,0,0,0,7.882,5.5a2.355,2.355,0,0,0,4.71,0,2.339,2.339,0,0,0-2.373-2.331m6.26,9.352A2.339,2.339,0,0,0,18.851,10.2a2.355,2.355,0,0,0-4.71.008,2.342,2.342,0,0,0,2.338,2.326" transform="translate(0 0)" fill="#499e1c"/><path d="M38.009,20.166A.783.783,0,0,1,37.2,19.4a.791.791,0,0,1,1.581,0,.783.783,0,0,1-.771.764" transform="translate(-27.753 -13.893)" fill="#499e1c"/><path d="M62.651,37.154a.783.783,0,0,1,.774.762.791.791,0,0,1-1.581.008.783.783,0,0,1,.807-.77" transform="translate(-46.139 -27.719)" fill="#499e1c"/></g></svg>