<svg xmlns="http://www.w3.org/2000/svg" width="28.383" height="23.63" viewBox="0 0 28.383 23.63">
  <path id="Path_84" data-name="Path 84" d="M153.467,21.8a7.861,7.861,0,0,1,5.8,2.514c.494.511.507.51,1.012-.006a7.888,7.888,0,0,1,13.628,6.16,8.446,8.446,0,0,1-2.309,4.918,91.627,91.627,0,0,1-7.367,6.714c-1.169,1-2.357,1.971-3.542,2.949a1.292,1.292,0,0,1-1.742.074c-3.6-2.969-7.208-5.935-10.529-9.226a9.191,9.191,0,0,1-2.676-4.7,7.81,7.81,0,0,1,4.865-8.885A8.794,8.794,0,0,1,152.1,21.9a6.21,6.21,0,0,1,1.37-.1m-.171,2.07a5.6,5.6,0,0,0-5.557,7.013,7.056,7.056,0,0,0,1.976,3.243c3.105,3.094,6.487,5.873,9.837,8.69.225.19.338.075.5-.062,1.276-1.077,2.569-2.135,3.834-3.226a77.243,77.243,0,0,0,6.376-5.878,5.834,5.834,0,0,0,1.592-5.38,5.247,5.247,0,0,0-3.786-4.126,5.453,5.453,0,0,0-5.588,1.29c-.571.521-1.1,1.091-1.649,1.632a1.379,1.379,0,0,1-2.121,0c-.531-.518-1.048-1.052-1.579-1.57a5.561,5.561,0,0,0-3.835-1.628" transform="translate(-145.577 -21.794)" fill="#9e9e9e"/>
</svg>
