<svg xmlns="http://www.w3.org/2000/svg" xmlns:xlink="http://www.w3.org/1999/xlink" width="24.185" height="27.444" viewBox="0 0 24.185 27.444">
  <defs>
    <clipPath id="clip-path">
      <rect id="Rectangle_7" data-name="Rectangle 7" width="24.185" height="27.444" transform="translate(0 -0.001)" fill="none"/>
    </clipPath>
  </defs>
  <g id="Group_9" data-name="Group 9" transform="translate(0 0.001)" clip-path="url(#clip-path)">
    <path id="Path_10" data-name="Path 10" d="M23,22.077c0-.058,0-.115,0-.172a1.8,1.8,0,0,0-.066-.437,2.2,2.2,0,0,0-.666-1.034c-.066-.059-.128-.12-.193-.18-.14-.131-.273-.265-.4-.4-.045-.047-.093-.094-.136-.143-.163-.181-.317-.366-.46-.556-.033-.046-.064-.094-.1-.141-.093-.129-.178-.261-.263-.394-.072-.117-.143-.235-.208-.354-.031-.055-.057-.111-.087-.166a7.737,7.737,0,0,1-.556-1.407c-.028-.1-.056-.2-.08-.3s-.052-.221-.073-.333c-.038-.194-.07-.391-.094-.591,0-.032-.01-.063-.014-.094-.028-.272-.045-.549-.048-.832,0-.1,0-.193,0-.29,0-.058,0-.115,0-.173a5.624,5.624,0,0,0,0-.757,25.883,25.883,0,0,0-.074-2.92,8.079,8.079,0,0,0-5.62-6.755,8.653,8.653,0,0,0-2.035-.345h-.012c-.1,0-.21,0-.314,0s-.21-.005-.316,0h-.009a8.635,8.635,0,0,0-2.036.345A8.078,8.078,0,0,0,3.52,10.4a26.12,26.12,0,0,0-.074,2.92,5.464,5.464,0,0,0,0,.757c0,.059,0,.119,0,.178q0,.142,0,.285c0,.283-.02.56-.049.832,0,.031-.009.062-.013.093-.023.2-.057.4-.094.592-.022.112-.046.223-.073.333s-.052.2-.08.3A7.633,7.633,0,0,1,2.582,18.1c-.029.056-.056.112-.087.167-.065.119-.136.237-.208.354-.084.133-.17.265-.263.4-.033.046-.064.094-.1.14q-.215.285-.459.556c-.044.049-.09.1-.135.143q-.194.2-.4.4c-.064.06-.126.121-.192.18A2.2,2.2,0,0,0,.07,21.469,1.781,1.781,0,0,0,0,21.9c0,.058-.006.115,0,.173v.006a1.91,1.91,0,0,0,.116.566,2.131,2.131,0,0,0,.157.334c.02.035.043.067.065.1.034.052.067.1.1.153.025.031.052.059.079.088a1.993,1.993,0,0,0,.142.148l.029.023a2.074,2.074,0,0,0,1.382.5h.13l.025,0,1.827,0c.929,0,1.859,0,2.788-.01a.48.48,0,0,1,.476.229.878.878,0,0,1,.05.125,4.333,4.333,0,0,0,1.341,2.075.275.275,0,0,0,.026.022c.074.063.152.124.23.182l.051.036c.074.053.151.1.229.153l.05.029c.082.05.167.1.252.14l.031.015c.094.048.191.091.29.132h0a4.207,4.207,0,0,0,1.325.305l.069,0c.052,0,.1.007.155.008l.08,0,.078,0c.052,0,.1-.006.156-.008l.07,0a4.208,4.208,0,0,0,1.324-.305c.1-.041.2-.084.29-.132l.031-.015c.085-.044.169-.09.252-.14l.049-.029c.08-.049.156-.1.231-.153l.05-.036c.078-.058.156-.119.231-.182l.026-.022a4.324,4.324,0,0,0,1.34-2.075,1.01,1.01,0,0,1,.051-.125.479.479,0,0,1,.475-.229c.929.009,1.859.01,2.788.01l1.828,0,.024,0h.131a2.074,2.074,0,0,0,1.382-.5c.008-.008.02-.015.028-.023a1.789,1.789,0,0,0,.142-.147c.028-.03.056-.058.08-.089.038-.048.07-.1.1-.152.022-.035.045-.067.066-.1a2.168,2.168,0,0,0,.157-.333A1.877,1.877,0,0,0,23,22.084l0-.007M5.175,11.313a6.256,6.256,0,0,1,2.952-5.3,6.034,6.034,0,0,1,3.158-.981c.073,0,.144,0,.217,0s.144,0,.217,0a6.04,6.04,0,0,1,3.158.981,6.258,6.258,0,0,1,2.951,5.3c.038,1.119-.036,2.242,0,3.361l.008.172c.013.287.033.574.066.86.02.169.052.331.08.5.005.024.007.048.012.071q.058.337.143.663l.024.1c.056.213.118.422.188.628.014.039.028.078.041.116.077.213.16.421.25.626.008.019.018.037.025.056a9.146,9.146,0,0,0,1.246,2.009c.012.016.026.031.039.047.146.178.3.353.459.524.054.058.113.114.169.171.1.1.2.207.3.306a3.573,3.573,0,0,1,.284.265.347.347,0,0,1,.091.209.218.218,0,0,1,0,.061v.005a.307.307,0,0,1-.061.107.139.139,0,0,1-.021.021.1.1,0,0,1-.024.016.369.369,0,0,1-.139.058.753.753,0,0,1-.143.012c-.011,0-.022,0-.034,0-.06,0-.123,0-.184,0H2.356c-.061,0-.123,0-.184,0-.011,0-.022,0-.033,0A.764.764,0,0,1,2,22.257a.4.4,0,0,1-.139-.057.175.175,0,0,1-.045-.038.305.305,0,0,1-.06-.107V22.05a.218.218,0,0,1,0-.061.348.348,0,0,1,.092-.209,3.573,3.573,0,0,1,.284-.265c.106-.1.2-.2.3-.306.057-.057.115-.113.169-.171.161-.171.313-.346.46-.524.012-.016.026-.031.039-.047a9.179,9.179,0,0,0,1.245-2.009c.008-.019.017-.037.026-.056.09-.2.173-.413.249-.626.014-.038.028-.077.041-.116q.105-.309.189-.628l.024-.1q.083-.326.143-.663c0-.024.007-.048.011-.072.028-.164.061-.327.08-.495.034-.286.053-.573.066-.86l.009-.172c.038-1.119-.037-2.242,0-3.361m7.5,14.117c-.069.035-.14.066-.211.095-.039.015-.077.028-.115.041s-.092.031-.139.044-.106.027-.158.039-.076.016-.114.022c-.056.01-.11.016-.165.022l-.124.011-.147,0c-.049,0-.1,0-.148,0l-.123-.011c-.056-.006-.111-.012-.165-.022-.038-.006-.076-.014-.115-.022s-.106-.024-.158-.039-.092-.028-.138-.044-.077-.026-.115-.041c-.073-.029-.142-.06-.212-.095l-.026-.013a2.481,2.481,0,0,1-.488-.336,1.861,1.861,0,0,1-.67-1.049A.321.321,0,0,1,9.309,24q1.1-.007,2.193-.006T13.694,24a.318.318,0,0,1,.165.032,1.861,1.861,0,0,1-.67,1.049,2.481,2.481,0,0,1-.488.336l-.026.013"/>
  </g>
</svg>
