<svg xmlns="http://www.w3.org/2000/svg" xmlns:xlink="http://www.w3.org/1999/xlink" width="48" height="48" viewBox="0 0 48 48">
  <defs>
    <clipPath id="clip-path">
      <rect id="Rectangle_673" data-name="Rectangle 673" width="27.779" height="30.19" fill="#fff"/>
    </clipPath>
  </defs>
  <g id="Group_9542" data-name="Group 9542" transform="translate(-22 -175)">
    <circle id="Ellipse_97" data-name="Ellipse 97" cx="24" cy="24" r="24" transform="translate(22 175)" fill="#000000"/>
    <g id="Group_1095" data-name="Group 1095" transform="translate(32.198 183.67)">
      <g id="Group_1095-2" data-name="Group 1095" clip-path="url(#clip-path)">
        <path id="Path_1369" data-name="Path 1369" d="M0,16.151Q0,10.127.006,4.1A3.933,3.933,0,0,1,2.846.161,3.979,3.979,0,0,1,4.036,0q9.83,0,19.66,0a3.906,3.906,0,0,1,4.061,3.91c.042,1.713.009,3.428.009,5.142a2.429,2.429,0,0,1-2.537,2.473c-.838-.045-1.681.015-2.52-.017-.429-.016-.532.131-.531.542q.019,7.864.008,15.728c0,.168-.008.336,0,.5a1.471,1.471,0,0,1-.732,1.491,1.515,1.515,0,0,1-1.654-.146c-1.056-.651-2.128-1.278-3.178-1.939a.764.764,0,0,0-.92.006c-1.2.739-2.422,1.438-3.617,2.183a1.678,1.678,0,0,1-1.965-.012c-1.191-.751-2.416-1.449-3.615-2.187a.737.737,0,0,0-.876,0c-1.04.646-2.1,1.26-3.14,1.9a1.613,1.613,0,0,1-1.743.207A1.6,1.6,0,0,1,0,28.2q.011-6.024,0-12.048M20.566,2.041c-.188-.01-.318-.024-.448-.024q-8.037,0-16.075,0a2.252,2.252,0,0,0-.45.035,1.959,1.959,0,0,0-1.573,2.19q0,11.313,0,22.626c0,.084.006.168,0,.252-.024.33.106.325.344.179.771-.474,1.553-.931,2.323-1.407a2.445,2.445,0,0,1,2.746-.006c1.118.678,2.242,1.345,3.353,2.035a.547.547,0,0,0,.669,0c1.084-.669,2.19-1.3,3.272-1.975a2.543,2.543,0,0,1,2.924.018c.8.506,1.626.98,2.452,1.475a1.31,1.31,0,0,0,.067-.637q0-10.809,0-21.618a6.7,6.7,0,0,1,.393-3.139m1.621,4.338c0,.89.013,1.78-.007,2.669-.008.344.089.471.449.461q1.258-.035,2.518,0c.475.014.612-.2.609-.637-.011-1.528,0-3.055-.006-4.583a4.345,4.345,0,0,0-.049-.7A1.89,1.89,0,0,0,23.725,2.02,1.676,1.676,0,0,0,22.19,3.81c-.011.856,0,1.712,0,2.568" transform="translate(0 0)" fill="#fff"/>
        <path id="Path_1370" data-name="Path 1370" d="M57.934,129.021c1.293,0,2.585,0,3.878,0a1.014,1.014,0,1,1-.006,2.014q-3.9,0-7.807,0a1.055,1.055,0,0,1-1.139-1.012,1.041,1.041,0,0,1,1.145-1c1.309,0,2.619,0,3.928,0" transform="translate(-47.531 -116.01)" fill="#fff"/>
        <path id="Path_1371" data-name="Path 1371" d="M57.988,183.929q1.914,0,3.827,0c.771,0,1.184.344,1.186.977s-.468,1.035-1.222,1.037c-1.729,0-3.458,0-5.187,0-.839,0-1.679.012-2.518,0A1.024,1.024,0,0,1,53,184.581a.923.923,0,0,1,.959-.654c1.343.008,2.686,0,4.029,0" transform="translate(-47.595 -165.38)" fill="#fff"/>
        <path id="Path_1372" data-name="Path 1372" d="M57.925,75.632c1.275,0,2.55,0,3.825,0,.761,0,1.185.362,1.19.984s-.444,1.024-1.172,1.027q-3.851.012-7.7,0c-.9,0-1.417-.668-1.117-1.4A1,1,0,0,1,54,75.63c1.309.007,2.617,0,3.926,0" transform="translate(-47.534 -68.003)" fill="#fff"/>
      </g>
    </g>
  </g>
</svg>
