<svg width="24" height="24" viewBox="0 0 24 24" fill="none" xmlns="http://www.w3.org/2000/svg">
<path d="M23.102 15.111C23.102 16.211 23.109 17.317 23.102 18.42C23.1325 18.7085 23.0993 19.0003 23.0047 19.2746C22.9101 19.5489 22.7564 19.7991 22.5545 20.0075C22.3525 20.2159 22.1073 20.3774 21.8361 20.4807C21.5649 20.5839 21.2744 20.6263 20.985 20.605C19.6389 20.5252 18.3127 20.959 17.274 21.819C15.452 23.0646 13.2476 23.6244 11.052 23.399C10.744 23.386 10.659 23.286 10.64 22.984C10.54 21.347 10.534 21.356 12.14 21.322C13.3756 21.294 14.5874 20.9765 15.678 20.395C15.8462 20.328 15.9878 20.2079 16.0815 20.0531C16.1752 19.8982 16.2157 19.717 16.197 19.537C16.167 18.237 16.206 16.937 16.181 15.644C16.1417 14.3418 16.4506 13.0528 17.076 11.91C17.2485 11.5143 17.4445 11.1292 17.663 10.757C18.0196 10.2127 18.2164 9.57934 18.2311 8.92883C18.2457 8.27833 18.0777 7.63675 17.746 7.07696C17.2088 5.83102 16.2796 4.79448 15.0995 4.12483C13.9194 3.45518 12.553 3.18902 11.2079 3.36678C9.86277 3.54454 8.61242 4.15651 7.64682 5.1097C6.68122 6.0629 6.05314 7.30524 5.85801 8.64796C5.7695 9.15935 5.84914 9.68566 6.08501 10.148C6.80601 11.589 7.76001 12.965 7.83601 14.637C7.91501 16.385 7.88701 18.137 7.88101 19.891C7.88496 19.9957 7.86614 20.1 7.82586 20.1967C7.78557 20.2934 7.72478 20.3802 7.64767 20.4511C7.57056 20.522 7.47898 20.5754 7.37925 20.6075C7.27951 20.6396 7.17401 20.6496 7.07001 20.637C5.70801 20.648 4.34301 20.686 2.98301 20.623C2.70416 20.6238 2.42811 20.5674 2.17201 20.457C1.91591 20.3467 1.68523 20.1849 1.49429 19.9817C1.30335 19.7785 1.15624 19.5382 1.06209 19.2757C0.967945 19.0132 0.928772 18.7342 0.947007 18.456C0.927007 16.206 0.927007 13.9563 0.947007 11.707C0.910907 11.2248 1.05432 10.7463 1.34966 10.3634C1.64501 9.98058 2.07145 9.72042 2.54701 9.63296C3.10101 9.50196 3.04701 9.12196 3.07801 8.76096C3.19342 6.88794 3.93676 5.10849 5.18801 3.70996C6.26561 2.37763 7.7155 1.39632 9.35289 0.891068C10.9903 0.385817 12.741 0.379513 14.382 0.872959C16.0014 1.27392 17.4717 2.13116 18.6184 3.34289C19.765 4.55462 20.5399 6.06994 20.851 7.70896C20.8767 7.83596 20.8934 7.96461 20.901 8.09396C20.98 8.85996 20.961 9.57696 22.019 9.84396C22.3791 9.982 22.6821 10.2377 22.8786 10.5695C23.0752 10.9013 23.1539 11.2898 23.102 11.672V15.111" fill="#CC3333"/>
</svg>
