<svg xmlns="http://www.w3.org/2000/svg" width="20" height="20" viewBox="0 0 20 20">
  <path id="icons8_timesheet" d="M1.12,0A1.126,1.126,0,0,0,0,1.12V16a.4.4,0,0,0,.4.4H10.8a.4.4,0,1,0,0-.8H.8V3.6h16v7.2a.4.4,0,1,0,.8,0V1.12A1.126,1.126,0,0,0,16.48,0Zm0,.8H16.48a.309.309,0,0,1,.32.32V2.8H.8V1.12A.309.309,0,0,1,1.12.8ZM2.8,6v.8H4.4V6ZM5.6,6v.8h9.2V6ZM2.8,8v.8H4.4V8ZM5.6,8v.8h9.2V8ZM2.8,10v.8H4.4V10Zm2.8,0v.8h9.2V10ZM2.8,12v.8H4.4V12Zm2.8,0v.8H12V12ZM16,12a4,4,0,1,0,4,4A4.006,4.006,0,0,0,16,12Zm0,.8A3.2,3.2,0,1,1,12.8,16,3.194,3.194,0,0,1,16,12.8Zm-.4.8v2.2l-1.439,1.08.478.641L16.4,16.2V13.6Z" fill="#CC3333"/>
</svg>
