<svg xmlns="http://www.w3.org/2000/svg" width="21.008" height="20" viewBox="0 0 21.008 20">
  <path id="icons8_star" d="M10.5,1a.42.42,0,0,0-.391.268L7.522,7.947.4,8.311a.42.42,0,0,0-.245.745L5.7,13.591,3.879,20.472a.42.42,0,0,0,.634.461L10.5,17.088,16.5,20.933a.42.42,0,0,0,.634-.461l-1.822-6.881,5.547-4.535a.42.42,0,0,0-.245-.745l-7.123-.364L10.9,1.268A.42.42,0,0,0,10.5,1Zm0,1.581L12.8,8.5a.42.42,0,0,0,.371.268l6.307.323-4.912,4.017a.42.42,0,0,0-.14.432l1.614,6.1-5.309-3.408a.42.42,0,0,0-.455,0L4.968,19.642l1.614-6.1a.42.42,0,0,0-.14-.432L1.529,9.095l6.307-.323A.42.42,0,0,0,8.207,8.5Z" transform="translate(0 -1)" fill="#CC3333"/>
</svg>
