<svg id="Layer_1" data-name="Layer 1" xmlns="http://www.w3.org/2000/svg" viewBox="0 0 500 500"><path d="M458,364.42c-11.48,25.49-17,36.88-31.77,59.37-20.66,31.44-49.81,70.69-85.81,70.94-32.06.29-40.33-20.92-83.86-20.54-43.5.2-52.56,20.95-84.66,20.62-36.05-.33-63.61-35.68-84.28-67.07-57.79-88-63.9-191.21-28.19-246.1,25.28-38.91,65.24-61.78,102.78-61.78,38.26,0,62.29,21,93.89,21,30.68,0,49.35-21,93.59-21,33.43,0,68.77,18.21,94.05,49.64C361.08,214.78,374.51,332.82,458,364.42ZM316.09,84.68C332.19,64,344.41,34.87,340,5.19,313.72,7,283,23.73,265.12,45.43c-16.26,19.8-29.73,49.15-24.49,77.55C269.28,123.89,298.92,106.8,316.09,84.68Z" style="fill:#666"/></svg>