<svg xmlns="http://www.w3.org/2000/svg" width="22.032" height="21.038" viewBox="0 0 22.032 21.038">
  <g id="Group_301" data-name="Group 301" transform="translate(-308.623 -278.452)">
    <path id="icons8_online_shop" d="M5,4A1.51,1.51,0,0,0,3.5,5.5V7.445A16.471,16.471,0,0,0,3,10.76a3.26,3.26,0,0,0,.5,1.879l0,0V25.031H6.922a.5.5,0,0,0,.163,0h6.847a.5.5,0,0,0,.163,0h6.847a.5.5,0,0,0,.163,0h3.426V12.642l0,0a3.26,3.26,0,0,0,.5-1.879,16.47,16.47,0,0,0-.5-3.315V5.5a1.51,1.51,0,0,0-1.5-1.5ZM5,5H23.029a.493.493,0,0,1,.5.5V7H21.11a.5.5,0,0,0-.163,0H17.605a.5.5,0,0,0-.163,0H14.1a.5.5,0,0,0-.163,0H10.6a.5.5,0,0,0-.163,0H7.09a.483.483,0,0,0-.163,0H4.5V5.5A.493.493,0,0,1,5,5Zm.5.5A.5.5,0,1,0,6,6,.5.5,0,0,0,5.5,5.5Zm1.5,0a.5.5,0,1,0,.5.5A.5.5,0,0,0,7.006,5.5Zm1.5,0a.5.5,0,1,0,.5.5A.5.5,0,0,0,8.508,5.5Zm-4.1,2.5h2.1v3.931a1.7,1.7,0,0,1-1.252.576.994.994,0,0,1-.851-.35.5.5,0,0,0-.038-.045l-.009-.01c-.011-.014-.023-.025-.033-.04A2.366,2.366,0,0,1,4,10.76,14.679,14.679,0,0,1,4.407,8.006Zm3.1,0h2.5v3.931a1.648,1.648,0,0,1-2.5,0Zm3.505,0h2.5v3.931a1.648,1.648,0,0,1-2.5,0Zm3.505,0h2.5v3.931a1.648,1.648,0,0,1-2.5,0Zm3.505,0h2.5v3.931a1.648,1.648,0,0,1-2.5,0Zm3.505,0h2.1a14.681,14.681,0,0,1,.406,2.754,2.455,2.455,0,0,1-.281,1.234.5.5,0,0,0-.194.254,1.031,1.031,0,0,1-.777.264,1.7,1.7,0,0,1-1.252-.576ZM7.006,12.789a2.662,2.662,0,0,0,1.753.725,2.662,2.662,0,0,0,1.753-.725,2.662,2.662,0,0,0,1.753.725,2.662,2.662,0,0,0,1.753-.725,2.481,2.481,0,0,0,3.505,0,2.481,2.481,0,0,0,3.505,0,2.661,2.661,0,0,0,1.753.725,2.281,2.281,0,0,0,.751-.126V24.029c-.037-.007-19.026-.007-19.028,0V13.388a2.281,2.281,0,0,0,.751.126A2.662,2.662,0,0,0,7.006,12.789Z" transform="translate(305.623 274.452)" fill="#CC3333"/>
    <path id="icons8_heart" d="M4.742,7A2.745,2.745,0,0,0,2,9.742c0,3.113,3.521,4.65,4.719,5.648l.132.112.132-.112c1.2-1,4.719-2.535,4.719-5.648a2.724,2.724,0,0,0-4.851-1.72A2.719,2.719,0,0,0,4.742,7Zm0,.422A2.312,2.312,0,0,1,6.673,8.463l.178.264.178-.264A2.317,2.317,0,0,1,11.28,9.742c0,2.72-3.038,4.128-4.429,5.226-1.391-1.1-4.429-2.506-4.429-5.226A2.317,2.317,0,0,1,4.742,7.422Z" transform="translate(312.788 281.971)" fill="#CC3333"/>
    <path id="icons8_heart_-_Outline" data-name="icons8_heart - Outline" d="M4.681,6.75a2.9,2.9,0,0,1,2.109.924A2.9,2.9,0,0,1,8.9,6.75,2.934,2.934,0,0,1,11.83,9.681c0,2.58-2.305,4.108-3.83,5.119-.387.256-.72.478-.957.675l-.253.215-.254-.216c-.235-.2-.569-.417-.955-.673-1.525-1.011-3.83-2.539-3.83-5.119A2.934,2.934,0,0,1,4.681,6.75ZM6.79,8.26l-.147-.18a2.535,2.535,0,0,0-4.515,1.6c0,2.377,2.2,3.837,3.661,4.8a12.068,12.068,0,0,1,.99.7l.011.009.009-.008a12.056,12.056,0,0,1,.991-.7c1.458-.966,3.661-2.427,3.661-4.8a2.535,2.535,0,0,0-4.515-1.6ZM4.681,7.172A2.5,2.5,0,0,1,6.77,8.3l.02.03L6.811,8.3a2.506,2.506,0,0,1,4.6,1.385c0,2.3-2.055,3.688-3.556,4.705-.351.238-.682.462-.945.67l-.117.093-.117-.093c-.263-.208-.594-.432-.945-.67-1.5-1.017-3.556-2.41-3.556-4.705A2.512,2.512,0,0,1,4.681,7.172ZM6.79,9l-.335-.5a2.127,2.127,0,0,0-3.9,1.173c0,2.095,1.879,3.368,3.39,4.392.307.208.6.406.85.6.25-.189.543-.387.85-.6,1.51-1.023,3.39-2.3,3.39-4.392a2.127,2.127,0,0,0-3.9-1.174Z" transform="translate(312.935 282.031)" fill="#CC3333"/>
  </g>
</svg>
