<svg xmlns="http://www.w3.org/2000/svg" width="22.003" height="22.003" viewBox="0 0 22.003 22.003">
  <path id="icons8_help" d="M13,2A11,11,0,1,0,24,13,11.009,11.009,0,0,0,13,2Zm0,.957A10.045,10.045,0,1,1,2.957,13,10.038,10.038,0,0,1,13,2.957Zm.138,4.069A3.071,3.071,0,0,0,9.915,9.754a.151.151,0,0,0,.137.189l1.081.19A.151.151,0,0,0,11.322,10a1.756,1.756,0,0,1,1.783-1.63,1.54,1.54,0,0,1,1.664,1.6,2.885,2.885,0,0,1-.805,1.8l-1.15,1.578a2.275,2.275,0,0,0-.514,1.545v.7a.16.16,0,0,0,.171.17H13.6a.161.161,0,0,0,.171-.171v-.548a1.769,1.769,0,0,1,.447-1.286l1.149-1.579a3.571,3.571,0,0,0,.874-2.23A2.882,2.882,0,0,0,13.14,7.026Zm-.754,10.037a.162.162,0,0,0-.172.172v1.475a.162.162,0,0,0,.172.171h1.3a.161.161,0,0,0,.171-.171V17.235a.162.162,0,0,0-.171-.172Z" transform="translate(-2 -2)" fill="#CC3333"/>
</svg>
