<svg xmlns="http://www.w3.org/2000/svg" width="22.004" height="21.038" viewBox="0 0 22.004 21.038">
  <path id="icons8_salary_male" d="M11.117,4a4.461,4.461,0,0,0-3.66,1.532c-.881,1.159-1.046,2.614-.493,4.961a1.634,1.634,0,0,0-.314,1.16,1.911,1.911,0,0,0,.817,1.563,4.684,4.684,0,0,0,.962,2.105v1.625c-.28.629-1.2.993-2.253,1.413-1.78.707-4,1.587-4.149,4.367L2,23.208H13.969a5.953,5.953,0,0,1-.483-.915H3c.335-1.821,1.951-2.462,3.517-3.084a6.568,6.568,0,0,0,2.351-1.3,3.5,3.5,0,0,0,2.309.727,3.784,3.784,0,0,0,2.046-.552c.069-.042.124-.076.173-.108a5.9,5.9,0,0,1,.525-1.083V15.317a4.662,4.662,0,0,0,.916-2.089c.326-.16.728-.567.821-1.6a1.573,1.573,0,0,0-.294-1.137c.388-1.248.729-3.065-.093-4.424A2.563,2.563,0,0,0,13.5,4.862,2.94,2.94,0,0,0,11.117,4Zm.009.914c.865,0,1.487.218,1.709.6l.113.191.22.03a1.71,1.71,0,0,1,1.317.809c.663,1.1.313,2.825-.084,3.936l-.144.376.362.181a.617.617,0,0,1,.123.515c-.061.676-.275.857-.322.866H14l-.039.414a3.791,3.791,0,0,1-.732,1.887l-.23.131v2.188c-.008.171-.669.686-1.829.686-1.138,0-1.829-.477-1.829-.686v-1.92l.007-.262-.23-.131a3.7,3.7,0,0,1-.785-1.891l-.005-.41H7.913c-.065-.026-.27-.243-.356-.866a.628.628,0,0,1,.164-.542l.269-.18-.079-.313c-.554-2.188-.463-3.467.272-4.434A3.6,3.6,0,0,1,11.126,4.914Zm7.847,10.062A5.031,5.031,0,1,0,24,20.007,5.038,5.038,0,0,0,18.973,14.976Zm0,.915a4.116,4.116,0,1,1-4.116,4.116A4.109,4.109,0,0,1,18.973,15.891Zm-.407.915v.8A1.409,1.409,0,0,0,17.3,19.022c0,1.132.893,1.337,1.611,1.5.645.148,1.009.254,1.009.7,0,.267-.124.715-.957.715a1.108,1.108,0,0,1-.722-.281.936.936,0,0,1-.23-.7l.005-.221h-.838l.006.222a1.549,1.549,0,0,0,1.375,1.689v.568h.812v-.557a1.443,1.443,0,0,0,1.375-1.435c0-1.093-.893-1.3-1.611-1.473-.645-.152-1.009-.259-1.009-.677,0-.5.27-.734.85-.734a.75.75,0,0,1,.824.832l0,.212h.809l.013-.2a1.559,1.559,0,0,0-.39-1.1,1.466,1.466,0,0,0-.865-.471v-.8Z" transform="translate(-2 -4)" fill="#CC3333"/>
</svg>
