<svg xmlns="http://www.w3.org/2000/svg" width="22.006" height="22" viewBox="0 0 22.006 22">
  <path id="icons8_logout_rounded_left" d="M12.987,2a10.986,10.986,0,0,1,8.872,4.5.478.478,0,1,1-.771.566,10.043,10.043,0,1,0,0,11.869.478.478,0,1,1,.771.566A11,11,0,1,1,12.987,2Zm6.7,6.691a.478.478,0,0,1,.329.145l3.784,3.784a.478.478,0,0,1,0,.761l-3.783,3.783a.478.478,0,1,1-.676-.676l3.01-3.01H12.031a.478.478,0,1,1,0-.957H22.355l-3.01-3.01a.478.478,0,0,1,.347-.821Z" transform="translate(-1.987 -2)" fill="#e10000"/>
</svg>
