<svg xmlns="http://www.w3.org/2000/svg" width="17.271" height="20.907" viewBox="0 0 17.271 20.907">
  <path id="icons8_online_support" d="M15.636,2c-5.772,0-8,3.727-8.181,7.272v3.039A2.056,2.056,0,0,0,7,13.732a2.138,2.138,0,0,0,1.676,2.13c1.182,3.091,3.142,7.045,6.505,7.045,1.818,0,3.228-1.182,4.318-2.727H18.32A4.127,4.127,0,0,1,15.138,22c-2.182,0-4.053-2.187-5.781-6.732L9.273,15,9,14.953a1.167,1.167,0,0,1-1.094-1.221,1.655,1.655,0,0,1,.128-.668l1.491.71a.455.455,0,0,0,.653-.412V10.11A13.283,13.283,0,0,0,12.7,9.727a9.367,9.367,0,0,0,4.261-2.074,7.073,7.073,0,0,0,3.224,2.372v3.338a.455.455,0,0,0,.653.412l.71-.355v1.506a1.075,1.075,0,0,1-.227.028l-.27.043-.1.27a28.516,28.516,0,0,1-1.364,3.054A2.388,2.388,0,0,0,21,17.6c.273-.591.5-1.188.724-1.733a1.844,1.844,0,0,0,.27-.1v.327a2.694,2.694,0,0,1-2.727,2.727h-1.9a1.368,1.368,0,0,0-1.278-.909h-.909a1.364,1.364,0,1,0,0,2.727h.909a1.368,1.368,0,0,0,1.278-.909h1.9a3.629,3.629,0,0,0,3.636-3.636v-.455a1.371,1.371,0,0,0,1.364-1.364V12.454a1.371,1.371,0,0,0-1.364-1.364V9.272c-.181-4-2.406-6.272-6.178-6.363L15.82,2Zm-.185.909.909.909h.185c4.545,0,5.363,3.409,5.454,5.454V11.09h-.043a.453.453,0,0,0-.412.455V12.4l-.455.227v-2.9a.453.453,0,0,0-.327-.44,6.8,6.8,0,0,1-3.38-2.528.451.451,0,0,0-.739-.043A8.018,8.018,0,0,1,12.5,8.846a16.918,16.918,0,0,1-2.8.426.455.455,0,0,0-.426.455v2.912l-.952-.455V9.272C8.594,4.681,12.133,2.955,15.451,2.909Zm7,9.09h.455a.453.453,0,0,1,.455.455v1.818a.453.453,0,0,1-.455.455h-.369a.475.475,0,0,0-.085-.014V12.738a.477.477,0,0,0,0-.142Zm-7.272,6.818h.909a.455.455,0,0,1,0,.909h-.909a.455.455,0,1,1,0-.909Z" transform="translate(-7 -2)" fill="#CC3333"/>
</svg>
