<svg xmlns="http://www.w3.org/2000/svg" width="58.127" height="61.028" viewBox="0 0 58.127 61.028">
  <path id="icons8_businesswoman" d="M35.515,4C29.532,4,25.23,6.066,22.392,9.222s-4.251,7.259-5.086,11.4-1.084,8.344-1.453,11.715a30.525,30.525,0,0,1-.681,4.268,4.621,4.621,0,0,1-.953,2.043,1.432,1.432,0,0,0-.5,1.09A3.422,3.422,0,0,0,15.4,42.46a10.369,10.369,0,0,0,3.042,1.226,56.162,56.162,0,0,0,7.129,1.181c-.011.085-.034.125-.045.227A6.151,6.151,0,0,1,22.3,48c-.011.006-.034-.006-.045,0a1.278,1.278,0,0,0-.136.045,1.434,1.434,0,0,0-.636.318c-1.743.778-3.837,1.487-5.994,2.407a20.988,20.988,0,0,0-6.9,4.314A12.634,12.634,0,0,0,5,63.484a1.456,1.456,0,0,0,1.453,1.544H61.67a1.456,1.456,0,0,0,1.453-1.544,12.669,12.669,0,0,0-3.542-8.4,20.9,20.9,0,0,0-6.857-4.314c-2.424-1.05-4.825-1.89-6.675-2.815-1.8-.9-2.969-1.8-3.451-2.951v-.182a43.034,43.034,0,0,0,7.311-1.362A13.521,13.521,0,0,0,53,42.1a2.939,2.939,0,0,0,1.68-2.5,1.445,1.445,0,0,0-.454-1.09,3.689,3.689,0,0,1-.727-1.771,24.533,24.533,0,0,1-.409-3.86c-.131-3.065-.074-6.9-.545-10.671s-1.459-7.56-3.86-10.489C46.43,8.972,42.865,7.213,37.921,7l-1.09-2.18A1.444,1.444,0,0,0,35.515,4ZM34.7,7.042l.954,1.953a1.443,1.443,0,0,0,1.317.817c4.842,0,7.634,1.5,9.49,3.769s2.741,5.483,3.179,8.991.409,7.254.545,10.444a27.271,27.271,0,0,0,.454,4.314,6.791,6.791,0,0,0,1.044,2.18c-.04.028-.079.04-.227.136a11.282,11.282,0,0,1-2.407,1.044,40.632,40.632,0,0,1-8.128,1.544A1.455,1.455,0,0,0,39.6,43.959a7.094,7.094,0,0,1,.136,1.453,1.494,1.494,0,0,0,.091.5,6.655,6.655,0,0,0,1,1.725l-6.766,9.127-6.63-9.172a6.113,6.113,0,0,0,.863-1.544,1.549,1.549,0,0,0,.091-.272,12.426,12.426,0,0,0,.136-2.089,1.45,1.45,0,0,0-1.271-1.453,62.911,62.911,0,0,1-8.037-1.317,8.367,8.367,0,0,1-2.225-.908c-.358-.233-.324-.233-.318-.227a7.891,7.891,0,0,0,1.317-2.452,32.941,32.941,0,0,0,.772-4.677c.38-3.479.624-7.572,1.408-11.443s2.094-7.509,4.4-10.081C26.74,8.717,29.913,7.235,34.7,7.042ZM25.253,49.589l5.676,7.81c-1.283-.244-2.611-.573-3.814-.908-1.754-.488-2.509-.795-3.088-1-.028-1.243-.114-3.962-.136-5.131C24.356,50.117,24.821,49.873,25.253,49.589Zm17.755,0c.392.261.806.5,1.226.727-.023,1.147-.108,3.922-.136,5.176-.579.2-1.334.511-3.088,1-1.192.329-2.5.67-3.769.908Zm4.087,2.043c1.47.607,2.98,1.181,4.45,1.816a18.5,18.5,0,0,1,5.948,3.678,9.443,9.443,0,0,1,2.361,4.995H8.27a9.382,9.382,0,0,1,2.361-4.995,18.686,18.686,0,0,1,5.994-3.678c1.459-.624,2.957-1.186,4.4-1.771.04,2.14.091,4.95.091,4.95a1.452,1.452,0,0,0,.953,1.362s1.873.647,4.268,1.317a32.452,32.452,0,0,0,7.311,1.317c.13.006.278.045.409.045h.091a.973.973,0,0,0,.182,0,.678.678,0,0,0,.091-.045h.045a32.452,32.452,0,0,0,7.311-1.317c2.4-.67,4.268-1.317,4.268-1.317A1.452,1.452,0,0,0,47,56.628S47.054,53.773,47.094,51.633Z" transform="translate(-4.998 -4)" fill="#CC3333"/>
</svg>
