<svg xmlns="http://www.w3.org/2000/svg" width="19.857" height="19.857" viewBox="0 0 19.857 19.857">
  <path id="icons8_language" d="M11.929,2C6.472,2,2,6.04,2,11.065A8.546,8.546,0,0,0,4.172,16.7H4.158a1.359,1.359,0,0,1,.094,1.039,4.955,4.955,0,0,1-.567,1.322A12.683,12.683,0,0,1,2.917,20.2c-.115.153-.219.283-.3.391a1.82,1.82,0,0,0-.094.162c-.03.052-.094.049-.094.283a.808.808,0,0,0,.243.567.984.984,0,0,0,.7.256c1.99,0,3.8-1.479,5.18-2.293a10.677,10.677,0,0,0,3.373.567c5.457,0,9.929-4.04,9.929-9.065S17.385,2,11.929,2Zm0,.863c5.034,0,9.065,3.69,9.065,8.2s-4.032,8.2-9.065,8.2A9.892,9.892,0,0,1,8.624,18.7l-.189-.067-.162.108c-1.5.857-3.3,2.238-4.87,2.253.059-.081.116-.155.2-.27A13.96,13.96,0,0,0,4.428,19.5,5.644,5.644,0,0,0,5.1,17.932a2.23,2.23,0,0,0-.2-1.673l-.027-.04-.013-.027a7.7,7.7,0,0,1-2-5.126C2.863,6.553,6.9,2.863,11.929,2.863ZM8.192,6.317a.434.434,0,0,0-.337.3L6.546,10.391a.432.432,0,0,0-.081.243l-.553,1.592a.432.432,0,1,0,.809.27l.5-1.43H9.3l.5,1.43a.432.432,0,1,0,.809-.27L8.664,6.614A.431.431,0,0,0,8.192,6.317Zm.067,1.74L9,10.2H7.517Zm7.082,1.268a.5.5,0,0,0-.054.013.433.433,0,0,0-.337.432v.863H12.711a.434.434,0,0,0,.081.863h3.764a5.825,5.825,0,0,1-1.43,2.4,6.374,6.374,0,0,1-1.066-1.335.432.432,0,1,0-.755.418,7.578,7.578,0,0,0,1.16,1.47,6.49,6.49,0,0,1-1.808.958.432.432,0,1,0,.27.809A7.192,7.192,0,0,0,15.1,15.031a8.637,8.637,0,0,0,1.821,1.174.434.434,0,1,0,.378-.782,7.987,7.987,0,0,1-1.551-.971,6.917,6.917,0,0,0,1.7-2.954h.526a.432.432,0,1,0,0-.863H15.814V9.77a.432.432,0,0,0-.472-.445Z" transform="translate(-2 -2)" fill="#CC3333"/>
</svg>
