<svg xmlns="http://www.w3.org/2000/svg" width="16.159" height="14.076" viewBox="0 0 16.159 14.076">
  <path id="icons8_hide" d="M3.379,4.967a.41.41,0,0,0-.044.011.349.349,0,0,0-.275.247.353.353,0,0,0,.1.357L16.514,18.936a.357.357,0,0,0,.505-.505l-2.976-2.976a15.919,15.919,0,0,0,4.042-3.218.357.357,0,0,0,0-.461c-.152-.177-3.775-4.338-8-4.338a7.94,7.94,0,0,0-3.284.78L3.665,5.077A.353.353,0,0,0,3.379,4.967Zm6.71,3.174a3.869,3.869,0,0,1,2.976,6.337L11.3,12.709a1.377,1.377,0,0,0,.2-.7A1.4,1.4,0,0,0,10.089,10.6a1.377,1.377,0,0,0-.7.2L7.618,9.03a3.853,3.853,0,0,1,2.021-.868C9.787,8.152,9.94,8.141,10.089,8.141ZM5.521,8.9a15.887,15.887,0,0,0-3.427,2.877.357.357,0,0,0,0,.461c.147.17,3.514,4.033,7.534,4.316.152.011.306.022.461.022.11,0,.221-.005.329-.011h.011a7.732,7.732,0,0,0,2.273-.483l-.714-.714a3.823,3.823,0,0,1-1.9.505c-.132,0-.264-.012-.4-.022a3.868,3.868,0,0,1-3.47-3.844,3.823,3.823,0,0,1,.505-1.9L6.224,9.59a4.541,4.541,0,0,0,.308,5.283,15.413,15.413,0,0,1-3.7-2.866A15.8,15.8,0,0,1,6.037,9.415Zm8.127.242a15.413,15.413,0,0,1,3.7,2.866,15.472,15.472,0,0,1-3.723,2.866,4.533,4.533,0,0,0,.022-5.733ZM8.695,12.061a1.391,1.391,0,0,0,1.34,1.34Z" transform="translate(-2.01 -4.966)" fill="#18212c" opacity="0.5"/>
</svg>
