<svg xmlns="http://www.w3.org/2000/svg" width="58.304" height="61.891" viewBox="0 0 58.304 61.891">
  <path id="icons8_user" d="M34.908,3.406c-6.789.125-11.125,2.866-12.987,7.129-1.777,4.058-1.379,9.184-.091,14.485a4.33,4.33,0,0,0-1.044,3.542,7.789,7.789,0,0,0,1.408,3.95c.386.488.891.534,1.362.772A15.606,15.606,0,0,0,24.873,37.6a13.247,13.247,0,0,0,1.181,1.953,6.806,6.806,0,0,0,.636.59c.011,1.794.017,3.286-.136,5.176-.471,1.141-1.572,2.06-3.36,2.952-1.845.919-4.246,1.771-6.675,2.815a21.238,21.238,0,0,0-6.9,4.314,12.6,12.6,0,0,0-3.587,8.355L5.938,65.3h58.3l-.091-1.544A12.622,12.622,0,0,0,60.563,55.4a21.106,21.106,0,0,0-6.857-4.314c-2.418-1.044-4.791-1.9-6.63-2.815-1.765-.885-2.878-1.782-3.36-2.906-.159-1.913-.148-3.411-.136-5.222a7.691,7.691,0,0,0,.636-.59A13.86,13.86,0,0,0,45.351,37.6a16.061,16.061,0,0,0,1.317-4.314c.454-.238.942-.3,1.317-.772a7.791,7.791,0,0,0,1.408-3.95,4.312,4.312,0,0,0-1-3.451,27.325,27.325,0,0,0,1.317-9.854,11.451,11.451,0,0,0-1.952-5.9A8.555,8.555,0,0,0,42.4,6.131c-1.527-1.981-4.274-2.724-7.447-2.724Zm.045,2.906H35c2.923.011,4.819.868,5.358,1.816l.363.59.681.091a5.443,5.443,0,0,1,4,2.225,8.828,8.828,0,0,1,1.408,4.45,26.987,26.987,0,0,1-1.362,9.445l-.363,1.135,1,.59a1.74,1.74,0,0,1,.409,1.589,5.193,5.193,0,0,1-.772,2.5c-.261.335-.4.318-.409.318l-1.226.091-.136,1.181a13.209,13.209,0,0,1-1.226,4,10.828,10.828,0,0,1-.863,1.5c-.267.369-.545.573-.409.5l-.772.409V39.6a61.107,61.107,0,0,0,.136,6.266v.182l.091.182c.829,2.231,2.747,3.621,4.859,4.677s4.535,1.833,6.811,2.815a18.487,18.487,0,0,1,5.9,3.723,9.422,9.422,0,0,1,2.407,4.949H9.3A9.4,9.4,0,0,1,11.7,57.442a18.649,18.649,0,0,1,5.948-3.723c2.287-.982,4.694-1.76,6.811-2.815s4.075-2.446,4.9-4.677l.091-.363A61.109,61.109,0,0,0,29.6,39.6v-.863l-.772-.409c.13.068-.182-.13-.454-.5a10.553,10.553,0,0,1-.908-1.5,12.682,12.682,0,0,1-1.226-4L26.1,31.15l-1.226-.091c-.011,0-.148.017-.409-.318a5.192,5.192,0,0,1-.772-2.5,1.76,1.76,0,0,1,.409-1.589l.954-.59-.272-1.044c-1.368-5.267-1.606-10.052-.182-13.3S28.914,6.437,34.953,6.312Z" transform="translate(-5.938 -3.406)" fill="#fff"/>
</svg>
