<svg id="icons8_google" xmlns="http://www.w3.org/2000/svg" width="18.773" height="18.773" viewBox="0 0 18.773 18.773">
  <path id="Path_70" data-name="Path 70" d="M22.591,11.548h-.756v-.039H13.387v3.755h5.3a5.636,5.636,0,1,1-1.569-6.083l2.655-2.655a9.377,9.377,0,1,0,3,6.861A9.451,9.451,0,0,0,22.591,11.548Z" transform="translate(-4 -4)" fill="#ffc107"/>
  <path id="Path_71" data-name="Path 71" d="M6.306,9.018,9.39,11.279a5.621,5.621,0,0,1,8.957-2.1L21,6.526a9.368,9.368,0,0,0-14.7,2.492Z" transform="translate(-5.224 -4)" fill="#ff3d00"/>
  <path id="Path_72" data-name="Path 72" d="M14.552,35.538A9.343,9.343,0,0,0,20.845,33.1L17.94,30.643a5.617,5.617,0,0,1-8.684-2.589L6.2,30.412A9.379,9.379,0,0,0,14.552,35.538Z" transform="translate(-5.165 -16.765)" fill="#4caf50"/>
  <path id="Path_73" data-name="Path 73" d="M33.2,20.039h-.756V20H24v3.755h5.3a5.651,5.651,0,0,1-1.918,2.615h0l2.905,2.458a9.08,9.08,0,0,0,3.093-6.949A9.451,9.451,0,0,0,33.2,20.039Z" transform="translate(-14.613 -12.491)" fill="#1976d2"/>
</svg>
