<svg xmlns="http://www.w3.org/2000/svg" width="19.431" height="26.123" viewBox="0 0 19.431 26.123">
  <path id="icons8_drag_gender_neutral" d="M14.864-.014a.522.522,0,0,0-.514.529v.538a.522.522,0,0,0-.132-.015A9.366,9.366,0,0,0,7.488,3.48a9.293,9.293,0,0,0-2.54,6.839c0,1.59.406,3.178.461,4.794A7.464,7.464,0,0,1,3.9,20.131a.522.522,0,0,0,.131.744,9.16,9.16,0,0,0,1.75.81,22.724,22.724,0,0,0,5.215,1.129,5.786,5.786,0,0,0,3.355,2.209v.564a.522.522,0,1,0,1.045,0V25a2.655,2.655,0,0,0,1.495-.96,8.4,8.4,0,0,0,3.2-2.966,8.328,8.328,0,0,0,1.326-3.053,3.208,3.208,0,0,0,1.8-2.7,2.368,2.368,0,0,0-.368-1.582,1.887,1.887,0,0,0-.458-.452,16.7,16.7,0,0,0,.848-4.942,6.735,6.735,0,0,0-.8-3.232,3.791,3.791,0,0,0-3.091-1.952,5.049,5.049,0,0,0-3.941-2.1V.516a.522.522,0,0,0-.53-.529ZM14.35,2.067V11.2c-.053.018-.1.04-.155.057a22.477,22.477,0,0,0-3.707,1.123,4.043,4.043,0,0,0-2.406,3.807,9.31,9.31,0,0,0,1.869,5.446A20.055,20.055,0,0,1,6.137,20.7a4.751,4.751,0,0,1-1.072-.489,8.721,8.721,0,0,0,1.388-5.137c-.06-1.759-.46-3.356-.46-4.758A8.212,8.212,0,0,1,8.22,4.226a8.3,8.3,0,0,1,6-2.143.522.522,0,0,0,.132-.015Zm1.045.054a3.9,3.9,0,0,1,3.2,1.778.522.522,0,0,0,.459.272,2.615,2.615,0,0,1,2.467,1.463,5.9,5.9,0,0,1,.667,2.716,16.6,16.6,0,0,1-.878,4.924.522.522,0,0,0,.221.606,1.585,1.585,0,0,1,.439.437,1.26,1.26,0,0,1,.2.888A2.212,2.212,0,0,1,20.8,17.221a.522.522,0,0,0-.35.44,7.7,7.7,0,0,1-1.23,2.84,7.465,7.465,0,0,1-2.828,2.639.522.522,0,0,0-.213.184,1.562,1.562,0,0,1-.78.6V11.892a6.567,6.567,0,0,0,3.094-3.35,4.344,4.344,0,0,1,1.084,2.943.522.522,0,1,0,1.045,0,5.318,5.318,0,0,0-1.947-4.191.516.516,0,0,0-.555-.167l-.049.017-.04.018a.522.522,0,0,0-.282.389A5.618,5.618,0,0,1,15.395,10.7ZM14.35,12.295V23.956a4.971,4.971,0,0,1-2.665-1.891,1.478,1.478,0,0,0-.115-.129,8.527,8.527,0,0,1-2.443-5.751,2.829,2.829,0,0,1,1.819-2.869A21.94,21.94,0,0,1,14.35,12.295ZM12,14.618a.783.783,0,1,0,.783.783A.784.784,0,0,0,12,14.618Zm5.746,0a.783.783,0,1,0,.783.783A.784.784,0,0,0,17.745,14.618Z" transform="translate(-3.798 0.014)" fill="#CC3333"/>
</svg>
