<svg xmlns="http://www.w3.org/2000/svg" width="19.857" height="23.73" viewBox="0 0 19.857 23.73">
  <path id="icons8_globe_earth" d="M10.981,2.582a.519.519,0,0,0-.278.1,10.957,10.957,0,0,0,5.746,19.942v1.622A16.769,16.769,0,0,0,12.081,25.3a.522.522,0,0,0,.19,1.008h4.613a.473.473,0,0,0,.169,0h4.619a.522.522,0,0,0,.19-1.008,16.769,16.769,0,0,0-4.368-1.053v-1.62a10.9,10.9,0,0,0,5.746-1.944.522.522,0,1,0-.6-.857A9.891,9.891,0,0,1,17.051,21.6a.668.668,0,0,0-.088-.008.3.3,0,0,1-.043,0A9.919,9.919,0,0,1,11.3,3.537a.523.523,0,0,0-.267-.955Zm5.99.218a8.832,8.832,0,0,0-4.989,1.538c-.029.018-.059.035-.088.053a2.7,2.7,0,0,0-.237.192,8.855,8.855,0,0,0-3.566,7.1c0,.184.016.363.027.543a.541.541,0,0,0,.031.428,8.882,8.882,0,0,0,4.815,6.943.533.533,0,0,0,.433.208,8.838,8.838,0,0,0,8.594-.8l.055-.035c.078-.053.149-.11.22-.169a8.863,8.863,0,0,0,3.585-7.115c0-.18-.016-.353-.027-.53a.533.533,0,0,0-.033-.465,8.888,8.888,0,0,0-4.825-6.925.531.531,0,0,0-.412-.2A8.83,8.83,0,0,0,16.972,2.8Zm0,1.045a7.838,7.838,0,0,1,2.44.392L17.559,5.526a10.417,10.417,0,0,0-1.292-.845,7.361,7.361,0,0,0-1.326-.563A7.925,7.925,0,0,1,16.972,3.845Zm3.605.881a7.86,7.86,0,0,1,2.51,2.057L20.518,8.572a16.146,16.146,0,0,0-2.106-2.338Zm-7.1.216a4.523,4.523,0,0,1,2.291.657,9.273,9.273,0,0,1,.885.559L14.707,7.516,12.973,5.024A2.082,2.082,0,0,1,13.476,4.943Zm-1.359.686L13.85,8.113,11.905,9.466a9.558,9.558,0,0,1-.22-1.024A3.831,3.831,0,0,1,12.118,5.628ZM17.529,6.85a14.736,14.736,0,0,1,2.13,2.32L17.1,10.953,15.317,8.391Zm-6.945.3a7.318,7.318,0,0,0,.069,1.447A10.7,10.7,0,0,0,11,10.1L9.153,11.384A7.773,7.773,0,0,1,10.583,7.148Zm13.1.494a7.8,7.8,0,0,1,1.061,3.067l-2.163,1.508a15.936,15.936,0,0,0-1.463-2.787ZM14.46,8.989l1.785,2.561L13.689,13.33a14.874,14.874,0,0,1-1.44-2.8Zm5.8,1.036a14.767,14.767,0,0,1,1.436,2.807l-2.212,1.54L17.7,11.81Zm-8.894,1.118a16.009,16.009,0,0,0,1.463,2.787l-2.565,1.787A7.8,7.8,0,0,1,9.2,12.649Zm13.425.832a7.775,7.775,0,0,1-1.434,4.24,7.214,7.214,0,0,0-.067-1.453,10.321,10.321,0,0,0-.343-1.5Zm-7.949.43,1.785,2.563-2.21,1.54a14.753,14.753,0,0,1-2.134-2.32Zm5.2,1.487a8.979,8.979,0,0,1,.216,1.02,3.81,3.81,0,0,1-.433,2.814l-1.728-2.481Zm-8.614.894a15.817,15.817,0,0,0,2.11,2.336l-2.167,1.51a7.859,7.859,0,0,1-2.51-2.057Zm5.813,1.057,1.728,2.481a3.819,3.819,0,0,1-2.791-.567,9.649,9.649,0,0,1-.881-.559Zm-2.852,1.987a10.527,10.527,0,0,0,1.29.843,7.2,7.2,0,0,0,1.332.565,7.736,7.736,0,0,1-4.476-.116Z" transform="translate(-6.006 -2.582)" fill="#CC3333"/>
</svg>
