<svg xmlns="http://www.w3.org/2000/svg" width="16.776" height="21.907" viewBox="0 0 16.776 21.907">
  <g id="Location_Icon" transform="translate(-54.224 -386)">
    <path id="Ellipse_113" data-name="Ellipse 113" d="M70.5,394.388a7.721,7.721,0,0,0-7.888-7.888,7.5,7.5,0,0,0-7.182,10.694,26.878,26.878,0,0,0,1.784,3.442,67.063,67.063,0,0,0,4.33,6.23,1.357,1.357,0,0,0,2.16.012,61.384,61.384,0,0,0,4.319-6.143,25.631,25.631,0,0,0,1.774-3.449A8.107,8.107,0,0,0,70.5,394.388Z" fill="none" stroke="#CC3333" stroke-width="1"/>
    <circle id="Ellipse_114" data-name="Ellipse 114" cx="4" cy="4" r="4" transform="translate(66.5 398.5) rotate(180)" fill="none" stroke="#CC3333" stroke-width="1"/>
  </g>
</svg>
