<svg xmlns="http://www.w3.org/2000/svg" width="21" height="17.601" viewBox="0 0 21 17.601">
  <g id="Love_Icon_3" data-name="Love_Icon 3" transform="translate(-53.5 -540.5)">
    <path id="Love_Icon_3_2" data-name="Love_Icon 3_2" d="M64,546.566l-.5.042a.5.5,0,0,0,1,0ZM64,557.6h.5a.5.5,0,0,0-.366-.482Zm0,0h-.5a.5.5,0,0,0,.636.481Zm0,0,.136-.481a.5.5,0,0,0-.271,0Zm0,0-.136.481a.5.5,0,0,0,.636-.481Zm0,0-.134-.482a.5.5,0,0,0-.366.482Zm-5-16.1a3.911,3.911,0,0,1,3.388,1.863,7.246,7.246,0,0,1,1.114,3.245l1-.083a8.244,8.244,0,0,0-1.279-3.719A4.907,4.907,0,0,0,59,540.5Zm-4.5,5.076a5.888,5.888,0,0,1,1.039-3.441A4.061,4.061,0,0,1,59,541.5v-1a5.06,5.06,0,0,0-4.266,2.04,6.887,6.887,0,0,0-1.234,4.036Zm9.634,10.543a15.306,15.306,0,0,1-6.479-4.048c-1.886-1.949-3.154-4.269-3.154-6.495h-1c0,2.589,1.458,5.147,3.436,7.19a16.3,16.3,0,0,0,6.929,4.316Zm-.634.482Zm.636.481h0l-.271-.962h0Zm0-.962h0l-.271.962h0Zm-.635.481Zm.634.481a16.3,16.3,0,0,0,6.929-4.316c1.978-2.043,3.436-4.6,3.436-7.19h-1c0,2.226-1.269,4.546-3.154,6.495a15.306,15.306,0,0,1-6.479,4.048ZM74.5,546.576a6.887,6.887,0,0,0-1.234-4.036A5.06,5.06,0,0,0,69,540.5v1a4.061,4.061,0,0,1,3.462,1.635,5.888,5.888,0,0,1,1.039,3.441ZM69,540.5a4.907,4.907,0,0,0-4.218,2.306,8.242,8.242,0,0,0-1.28,3.719l1,.083a7.247,7.247,0,0,1,1.114-3.245A3.911,3.911,0,0,1,69,541.5Z" fill="#CC3333"/>
  </g>
</svg>
