<svg id="Group_286" data-name="Group 286" xmlns="http://www.w3.org/2000/svg" width="53.041" height="52.831" viewBox="0 0 53.041 52.831">
  <path id="icons8_movie_ticket" d="M34.969.063a3,3,0,0,0-2.086.894L32.85.923,26.592,7.115a1.076,1.076,0,0,0-.4.43L.831,32.711v.033a3,3,0,0,0,0,4.238L4.142,40.26a1.06,1.06,0,0,0,1.391.1A5.438,5.438,0,0,1,8.811,39.1a4.936,4.936,0,0,1,4.967,4.967,4.757,4.757,0,0,1-1.225,3.212,1.06,1.06,0,0,0,.066,1.457L15.9,52.015a3,3,0,0,0,4.238,0l25.1-25.066a1.053,1.053,0,0,0,.795-.861l5.894-5.861a1.127,1.127,0,0,0,.1-.1,2.82,2.82,0,0,0,.132-4.139l-3.311-3.278a1.06,1.06,0,0,0-1.391-.1,4.883,4.883,0,0,1-3.146,1.159,4.959,4.959,0,0,1-3.841-8.145,1.06,1.06,0,0,0-.1-1.391L37.088.957A3,3,0,0,0,34.969.063Zm0,2.152a.89.89,0,0,1,.629.232l2.715,2.715A6.967,6.967,0,0,0,37.187,8.8a7.12,7.12,0,0,0,7.119,7.086,6.84,6.84,0,0,0,3.609-1.126l2.715,2.715a.72.72,0,0,1,.033,1.06,1,1,0,0,0-.132.1L44.869,24.3a1.056,1.056,0,0,0-1.49,1.49L18.645,50.525a.957.957,0,0,1-1.258,0l-2.715-2.715A6.882,6.882,0,0,0,15.9,44.068a7.091,7.091,0,0,0-7.086-7.086,7.009,7.009,0,0,0-3.742,1.225L2.354,35.492a.957.957,0,0,1,0-1.258l24.8-24.668a1.065,1.065,0,1,0,1.523-1.49L34.34,2.447A.889.889,0,0,1,34.969,2.215ZM30.7,10.724l-.795.53-.033.96.232.3L31.558,14l.927.3.762-.563.033-.927-.2-.331-1.49-1.457Zm4.437,4.437-.762.563-.033.927.2.331,1.49,1.49.894.3.795-.563.033-.927-.2-.331-1.49-1.49Zm4.47,4.47-.762.53-.033.96.2.3,1.49,1.49.894.3.795-.53.033-.96-.232-.3-1.49-1.49Z" transform="translate(0.048 -0.062)" fill="#CC3333"/>
  <text id="_" data-name="%" transform="translate(33.304 29.493) rotate(-45)" fill="#CC3333" font-size="21" font-family="SegoeUI-Bold, Segoe UI" font-weight="700"><tspan x="-18.211" y="0">%</tspan></text>
</svg>
