<svg xmlns="http://www.w3.org/2000/svg" width="25.823" height="28.171" viewBox="0 0 25.823 28.171">
  <path id="icons8_order_history" d="M6,2V27.823H21.259V26.649H7.174V3.174H27.128V17.259H28.3V2Zm4.7,5.282V8.456H23.607V7.282Zm0,7.63v1.174h2.348V14.912Zm4.108,0v1.174h8.8V14.912ZM10.7,18.433v1.174h2.348V18.433Zm4.108,0v1.174h5.39a1.652,1.652,0,0,1,0-1.174Zm7.043,0a.587.587,0,0,0,0,1.174h.587v1.761a2.838,2.838,0,0,0,1.116,2.171l.938.763-.88.763a2.653,2.653,0,0,0-1.174,2.171V29h-.587a.587.587,0,0,0,0,1.174h9.39a.554.554,0,0,0,.587-.587A.571.571,0,0,0,31.179,29h-.53V27.236a2.671,2.671,0,0,0-1.116-2.171l-.88-.763.88-.763a2.671,2.671,0,0,0,1.116-2.171V19.607h.587a.587.587,0,1,0,0-1.174Zm1.761,1.174h5.869v1.761a1.633,1.633,0,0,1-.644,1.291l-1.41,1.174a.534.534,0,0,0-.236.47.393.393,0,0,0,.236.41l1.41,1.233a1.558,1.558,0,0,1,.644,1.291V29H28.3c0-1.174-1.761-2.348-1.761-2.348S24.781,27.823,24.781,29H23.607V27.236a1.62,1.62,0,0,1,.7-1.291l1.408-1.174a.534.534,0,0,0,.236-.47.393.393,0,0,0-.236-.41l-1.408-1.233a1.7,1.7,0,0,1-.7-1.291Zm1.174,1.761c0,1.291,1.761,1.761,1.761,1.761s1.761-.47,1.761-1.761ZM10.7,21.954v1.174h2.348V21.954Zm4.108,0v1.174h6.912a3.637,3.637,0,0,1-.4-1.174Z" transform="translate(-6 -2)" fill="#CC3333"/>
</svg>
