<svg xmlns="http://www.w3.org/2000/svg" width="22.784" height="28.78" viewBox="0 0 22.784 28.78">
  <path id="icons8_door_to_door_delivery" d="M20.175,1a.6.6,0,0,0-.162.027l-9.593,3A.6.6,0,0,0,10,4.6V26.781a.6.6,0,0,0,.454.582l9.593,2.4a.6.6,0,0,0,.745-.582V1.6a.6.6,0,0,0-.617-.6Zm-.582,1.416v26l-8.394-2.1V5.038Zm2.4.982V4.6h4.8V16.589h1.2V4a.6.6,0,0,0-.6-.6Zm-3.6,11.392c-.331,0-.6.4-.6.9s.268.9.6.9.6-.4.6-.9S18.725,14.79,18.394,14.79Zm4.2,3a.6.6,0,0,0-.6.6v8.394a.6.6,0,0,0,.6.6h9.593a.6.6,0,0,0,.6-.6V18.387a.6.6,0,0,0-.6-.6Zm.6,1.2h8.394v7.195H23.191Zm3,1.2a.6.6,0,1,0,0,1.2h2.4a.6.6,0,1,0,0-1.2Z" transform="translate(-10 -1)" fill="#CC3333"/>
</svg>
