<svg xmlns="http://www.w3.org/2000/svg" width="26.381" height="23.211" viewBox="0 0 26.381 23.211">
  <g id="Group_213" data-name="Group 213" transform="translate(0 0)">
    <path id="icons8_return" d="M5.724-.006a.531.531,0,0,0-.313.148L.137,5.416a.527.527,0,0,0,0,.758l5.274,5.274a.536.536,0,0,0,.758-.758L1.8,6.322h15.59a7.911,7.911,0,0,1,.082,15.821H8.427v.363a.54.54,0,0,0,0,.313V23.2h9.031c.029,0,.054-.016.082-.016a8.95,8.95,0,0,0,0-17.9.608.608,0,0,0-.066-.017H1.8L6.169.9a.528.528,0,0,0-.445-.906ZM-.011,22.143V23.2H1.044V22.143Zm2.109,0V23.2H3.153V22.143Zm2.109,0V23.2H5.263V22.143Zm2.109,0V23.2H7.372V22.143Z" transform="translate(0.023 0.013)" fill="#CC3333"/>
    <path id="Union_3" data-name="Union 3" d="M.378,10.234A.379.379,0,0,1,0,9.855V.379A.376.376,0,0,1,.307,0L.316,0H11.527a.379.379,0,0,1,.378.379V9.855a.379.379,0,0,1-.378.379Zm.379-.757H11.148V.757H.757Zm6.489-.916V7.8h2.987v.757ZM9.2,7.726V6.889H8.831l.744-1.116.746,1.116H9.954v.836Zm-1.672,0V6.889H7.159L7.9,5.773l.744,1.116H8.282v.836ZM4.837,3.266a.936.936,0,1,1,0-1.872H7.067a.936.936,0,1,1,0,1.872Zm-.179-.936a.179.179,0,0,0,.179.179H7.067a.178.178,0,1,0,0-.357H4.837A.179.179,0,0,0,4.659,2.329Z" transform="translate(8.901 9.54)" fill="#CC3333"/>
  </g>
</svg>
