<?xml version="1.0" encoding="utf-8"?>
<!-- Generator: Adobe Illustrator 25.0.0, SVG Export Plug-In . SVG Version: 6.00 Build 0)  -->
<svg version="1.1" id="Layer_1" xmlns="http://www.w3.org/2000/svg" xmlns:xlink="http://www.w3.org/1999/xlink" x="0px" y="0px"
	 viewBox="0 0 512 512" style="enable-background:new 0 0 512 512;" xml:space="preserve">
<style type="text/css">
	.st0{fill:#E42823;}
	.st1{fill:#FFFFFF;}
	.st2{fill:#B51917;}
</style>
<g>
	<path class="st0" d="M280.2,291.6H32.7c-1.5,0-2.7-1.2-2.7-2.7V92c0-1.5,1.2-2.7,2.7-2.7h247.5c1.5,0,2.7,1.2,2.7,2.7v196.8
		C283,290.4,281.8,291.6,280.2,291.6z"/>
	<path class="st1" d="M497,265.2c0,8.7-6.2,15.7-13.8,15.7h-2.5c-7.6,0-13.8-7-13.8-15.7l0,0c0-8.7,6.2-15.7,13.8-15.7h2.5
		C490.8,249.4,497,256.5,497,265.2L497,265.2z"/>
	<path class="st0" d="M485.3,308.1c0.3-0.2,0.4-0.7,0.4-1.3V249c0-2.2-0.5-4.1-2.5-4.4c-0.2-0.2-0.4-0.3-0.6-0.5l-53.1-36.8
		c-1-0.7-2.4-1.3-3.8-1.8c-7.7-76-46-92.5-54.4-95.1c-17-5.2-65.1-3.2-65.1-3.2c-2.5,0.1-4.5,2.2-4.5,4.7v93c0,0.3,0,0.5,0.1,0.7
		c0,0.2-0.1,0.4-0.1,0.7v39c0,0.2,0,0.3,0,0.4c0,0.1,0,0.3,0,0.4v60.7c0,0.8,0.2,1.3,0.7,1.5H19.5c-2.5,0-4.5,2-4.5,4.5v43.1
		c0,2.5,2,4.5,4.5,4.5h462.3c2.5,0,4.5-2,4.5-4.5v-46.1C486.4,308.6,486,308.2,485.3,308.1z"/>
	<path class="st2" d="M312.4,195.9v-78c0,0,42.4-0.8,56.3,3c8.3,2.3,36.7,21.2,45.2,75H312.4z"/>
	<path class="st2" d="M173.1,370.8c0,29.1-23.8,52.6-53.1,52.6l0,0c-29.3,0-53.1-23.6-53.1-52.6l0,0c0-29.1,23.8-52.6,53.1-52.6l0,0
		C149.4,318.2,173.1,341.8,173.1,370.8L173.1,370.8z"/>
	<path class="st2" d="M446.5,370.8c0,29.1-23.8,52.6-53.1,52.6l0,0c-29.3,0-53.1-23.6-53.1-52.6l0,0c0-29.1,23.8-52.6,53.1-52.6l0,0
		C422.8,318.2,446.5,341.8,446.5,370.8L446.5,370.8z"/>
	<path class="st1" d="M162.5,370.8c0,23.2-19,42.1-42.5,42.1l0,0c-23.5,0-42.5-18.8-42.5-42.1l0,0c0-23.2,19-42.1,42.5-42.1l0,0
		C143.5,328.7,162.5,347.6,162.5,370.8L162.5,370.8z"/>
	<path class="st1" d="M435.9,370.8c0,23.2-19,42.1-42.5,42.1l0,0c-23.5,0-42.5-18.8-42.5-42.1l0,0c0-23.2,19-42.1,42.5-42.1l0,0
		C416.9,328.7,435.9,347.6,435.9,370.8L435.9,370.8z"/>
</g>
</svg>
