<svg xmlns="http://www.w3.org/2000/svg" width="29.979" height="22.184" viewBox="0 0 29.979 22.184">
  <path id="icons8_in_transit" d="M0,8V9.2H16.844a.646.646,0,0,1,.543.543V25.987H11.336a3.59,3.59,0,0,0-7.082,0H1.8a.6.6,0,0,1-.6-.6v-5.4H0v5.4a1.808,1.808,0,0,0,1.8,1.8H4.253a3.59,3.59,0,0,0,7.082,0h9.106a3.59,3.59,0,0,0,7.082,0h.656a1.858,1.858,0,0,0,1.8-1.8V19.635a4.07,4.07,0,0,0-.487-1.761,6.461,6.461,0,0,0-.468-.806V17.05l-2.455-3.3H26.55v-.019A3.457,3.457,0,0,0,23.983,12.2h-4.8a1.634,1.634,0,0,0-.6.112V9.743A1.745,1.745,0,0,0,16.844,8Zm0,2.4v1.2H10.792V10.4Zm0,2.4V14H8.994V12.8Zm19.186.6h2.4v5.4a1.858,1.858,0,0,0,1.8,1.8h5.4v4.8a.744.744,0,0,1-.6.6h-.656a3.59,3.59,0,0,0-7.082,0H18.587V14a.745.745,0,0,1,.6-.6Zm3.6,0h1.2a2.705,2.705,0,0,1,1.611,1.087l2.455,3.279.019.019a4.781,4.781,0,0,1,.356.618,3.53,3.53,0,0,1,.281.993H23.383a.745.745,0,0,1-.6-.6ZM0,15.195v1.2H7.195v-1.2Zm0,2.4v1.2H5.4v-1.2Zm7.794,6.6a2.4,2.4,0,1,1-2.4,2.4A2.388,2.388,0,0,1,7.794,24.188Zm16.188,0a2.4,2.4,0,1,1-2.4,2.4A2.388,2.388,0,0,1,23.983,24.188Z" transform="translate(0 -8)" fill="#CC3333"/>
</svg>
