<svg xmlns="http://www.w3.org/2000/svg" width="26.381" height="25.182" viewBox="0 0 26.381 25.182">
  <path id="icons8_shop" d="M3.6,6V9.6a29.115,29.115,0,0,0-.6,4.5,3.9,3.9,0,0,0,.6,2.248V31.182H28.782V16.343a3.9,3.9,0,0,0,.6-2.248,28.346,28.346,0,0,0-.6-4.459V6ZM4.8,7.2H27.582V9H24.7a.61.61,0,0,0-.244,0H20.519a.561.561,0,0,0-.187-.019A.528.528,0,0,0,20.275,9H16.322a.561.561,0,0,0-.187-.019A.528.528,0,0,0,16.078,9H12.125a.561.561,0,0,0-.187-.019A.528.528,0,0,0,11.881,9H7.928a.561.561,0,0,0-.187-.019A.528.528,0,0,0,7.684,9H4.8Zm-.075,3H7.2v5.321a2.056,2.056,0,0,1-1.5.675,1.267,1.267,0,0,1-.974-.337.583.583,0,0,0-.15-.187A2.869,2.869,0,0,1,4.2,14.094,27.3,27.3,0,0,1,4.724,10.2Zm3.672,0h3v5.321a2,2,0,0,1-3,0Zm4.2,0h3v5.321a2,2,0,0,1-3,0Zm4.2,0h3v5.34a2.022,2.022,0,0,1-3-.019Zm4.2,0h3v5.34a2.041,2.041,0,0,1-3,0Zm4.2,0h2.473a27.3,27.3,0,0,1,.525,3.9,3.067,3.067,0,0,1-.3,1.443.606.606,0,0,0-.281.375,1.313,1.313,0,0,1-.918.281,2.057,2.057,0,0,1-1.5-.656Zm-4.8,6.314a2.941,2.941,0,0,0,4.2,0,3.181,3.181,0,0,0,2.1.881,2.8,2.8,0,0,0,.9-.15V29.983h-1.8V19.191h-6.6V29.983H4.8V17.242a2.8,2.8,0,0,0,.9.15,3.179,3.179,0,0,0,2.1-.862,3.179,3.179,0,0,0,2.1.862,3.179,3.179,0,0,0,2.1-.862,3.179,3.179,0,0,0,2.1.862,3.179,3.179,0,0,0,2.1-.862,2.963,2.963,0,0,0,4.2-.019ZM6.6,19.191v8.994H17.39V19.191Zm1.2,1.2h8.394v6.6H7.8Zm12.591,0h4.2v9.593h-4.2Z" transform="translate(-3 -6)" fill="#CC3333"/>
</svg>
