<svg xmlns="http://www.w3.org/2000/svg" width="16.324" height="16.673" viewBox="0 0 16.324 16.673">
  <path id="icons8_buy" d="M5.815.966l.043.011a.341.341,0,0,1,.266.34V7.288L7.239,6.172a.341.341,0,0,1,.276-.106l.043.011a.338.338,0,0,1,.266.239.342.342,0,0,1-.1.345l-1.7,1.7L5.783,8.6l-.244-.234-1.7-1.7a.346.346,0,1,1,.489-.489L5.443,7.288V1.316A.34.34,0,0,1,5.815.966Zm9.925.351.032.011a.029.029,0,0,1,.011,0l.021.011A.679.679,0,1,1,14.964,2H13.381a1.112,1.112,0,0,0-.808.234,1.65,1.65,0,0,0-.4.765L9.449,13.972a2.608,2.608,0,0,1-.489,1.116,1.329,1.329,0,0,1-.446.329,1.329,1.329,0,0,1,.329.861,1.36,1.36,0,0,1-2.72,0,1.336,1.336,0,0,1,.191-.68H4.232a1.336,1.336,0,0,1,.191.68,1.36,1.36,0,0,1-2.72,0,1.341,1.341,0,0,1,.361-.9.34.34,0,0,1,.319-.457h5.2c.525,0,.739-.112.882-.276a2.211,2.211,0,0,0,.329-.829V13.8l.234-.924H2.787a.339.339,0,0,1-.319-.223L.024,6.194A.337.337,0,0,1,.4,5.737a.337.337,0,0,1,.266.223L3.02,12.2H9.183L11.51,2.836V2.815a2.28,2.28,0,0,1,.606-1.094,1.834,1.834,0,0,1,1.264-.4H15.74ZM7.483,15.6a.68.68,0,1,0,.68.68A.675.675,0,0,0,7.483,15.6Zm-4.42,0a.68.68,0,1,0,.68.68A.675.675,0,0,0,3.063,15.6Z" transform="translate(0 -0.964)" fill="#CC3333"/>
</svg>
