<svg xmlns="http://www.w3.org/2000/svg" width="10.75" height="10.234" viewBox="0 0 10.75 10.234">
  <path id="icons8_star" d="M5.375,1a.215.215,0,0,0-.2.137L3.849,4.555.2,4.741a.215.215,0,0,0-.125.381L2.917,7.443l-.932,3.521a.215.215,0,0,0,.324.236L5.375,9.232,8.441,11.2a.215.215,0,0,0,.324-.236L7.833,7.443l2.838-2.321a.215.215,0,0,0-.125-.381L6.9,4.555,5.575,1.137A.215.215,0,0,0,5.375,1Zm0,.809L6.55,4.84a.215.215,0,0,0,.19.137l3.227.165L7.454,7.2a.215.215,0,0,0-.072.221l.826,3.121L5.491,8.8a.215.215,0,0,0-.233,0L2.542,10.54l.826-3.121A.215.215,0,0,0,3.3,7.2L.782,5.142,4.01,4.977A.215.215,0,0,0,4.2,4.84Z" transform="translate(0 -1)"/>
</svg>
