<svg xmlns="http://www.w3.org/2000/svg" width="37.996" height="15.507" viewBox="0 0 37.996 15.507">
  <path id="icons8_christmas_gift" d="M9.34.093A5.068,5.068,0,0,0,5.579,1.636c-2.033,2.033-2.787,4.215-2.435,6.2a8.648,8.648,0,0,0,3.41,5.033A20.191,20.191,0,0,0,11.207,15.6h21.7a20.192,20.192,0,0,0,4.654-2.733,8.648,8.648,0,0,0,3.41-5.033c.352-1.982-.4-4.164-2.435-6.2A5.078,5.078,0,0,0,34.208.148a4.929,4.929,0,0,0-3.545,2.246,61.4,61.4,0,0,1-5.845,8.253A2.51,2.51,0,0,0,23.79,10.4H20.326a2.51,2.51,0,0,0-1.028.244,61.4,61.4,0,0,1-5.845-8.253A4.929,4.929,0,0,0,9.908.148,5.3,5.3,0,0,0,9.34.093ZM8.961,1.825a3.383,3.383,0,0,1,3.031,1.461,60.593,60.593,0,0,0,6.034,8.524,2.613,2.613,0,0,0-.244.758,29,29,0,0,1-4.275-4.357,11.564,11.564,0,0,0-2.381-2.273,2.334,2.334,0,0,0-1.407-.406,2.051,2.051,0,0,0-1.407.758A2.193,2.193,0,0,0,7.8,7.806a2.711,2.711,0,0,0,.541,1.407,9.186,9.186,0,0,0,2.625,2.246,38.113,38.113,0,0,0,6.765,3.22v.054a2.512,2.512,0,0,0,.162.812,20.782,20.782,0,0,1-10.256-4,7.1,7.1,0,0,1-2.787-4C4.6,6.141,5.007,4.616,6.769,2.854A3.348,3.348,0,0,1,8.961,1.825Zm26.194,0a3.348,3.348,0,0,1,2.192,1.028c1.762,1.762,2.168,3.288,1.921,4.681a7.1,7.1,0,0,1-2.787,4,20.782,20.782,0,0,1-10.256,4,2.512,2.512,0,0,0,.162-.812v-.054a38.113,38.113,0,0,0,6.765-3.22,9.186,9.186,0,0,0,2.625-2.246,2.712,2.712,0,0,0,.541-1.407A2.193,2.193,0,0,0,35.8,6.29,2.051,2.051,0,0,0,34.4,5.533a2.334,2.334,0,0,0-1.407.406,11.564,11.564,0,0,0-2.381,2.273,29,29,0,0,1-4.275,4.357,2.616,2.616,0,0,0-.243-.758,60.593,60.593,0,0,0,6.034-8.524A3.383,3.383,0,0,1,35.155,1.825ZM9.827,7.237a.842.842,0,0,1,.406.162,11.586,11.586,0,0,1,1.975,1.948c.419.484.934,1.052,1.407,1.6-.589-.308-1.228-.6-1.732-.92A8.205,8.205,0,0,1,9.746,8.239,1.18,1.18,0,0,1,9.5,7.7a.325.325,0,0,1,.108-.3C9.753,7.231,9.793,7.241,9.827,7.237Zm24.462,0c.034,0,.074-.007.216.162a.325.325,0,0,1,.108.3,1.181,1.181,0,0,1-.243.541,8.206,8.206,0,0,1-2.138,1.786c-.5.321-1.143.612-1.732.92.474-.545.988-1.113,1.407-1.6A11.583,11.583,0,0,1,33.884,7.4.841.841,0,0,1,34.289,7.237Zm-13.963,4.9H23.79a.862.862,0,0,1,.541.189.415.415,0,0,0,.054.054c.007.007.02-.007.027,0,.017.027.034.054.054.081a.863.863,0,0,1,.189.541v1.732a.859.859,0,0,1-.866.866H20.326a.859.859,0,0,1-.866-.866V13a.855.855,0,0,1,.325-.676.415.415,0,0,0,.054-.054A.872.872,0,0,1,20.326,12.135Z" transform="translate(-3.06 -0.092)" fill="#ab00ff"/>
</svg>
