<svg xmlns="http://www.w3.org/2000/svg" width="19.352" height="17.966" viewBox="0 0 19.352 17.966">
  <g id="Group_306" data-name="Group 306" transform="translate(-65.155 -693)">
    <path id="icons8_box" d="M1,3V7.169h.695V18.634H16.982V7.169h.695V3Zm.695.695H16.982V6.474H1.695ZM2.39,7.169h13.9V17.94H2.39Zm4.343,1.39a1.216,1.216,0,0,0,0,2.432h5.211a1.216,1.216,0,0,0,0-2.432Zm0,.695h5.211a.521.521,0,0,1,0,1.042H6.733a.521.521,0,0,1,0-1.042Z" transform="translate(64.155 690)" fill="#e10000"/>
    <ellipse id="Ellipse_43" data-name="Ellipse 43" cx="3.882" cy="3.882" rx="3.882" ry="3.882" transform="translate(76.743 703.202)" fill="#fff"/>
    <path id="Ellipse_43_-_Outline" data-name="Ellipse 43 - Outline" d="M3.9.434A3.47,3.47,0,1,0,7.373,3.9,3.474,3.474,0,0,0,3.9.434M3.9,0A3.9,3.9,0,1,1,0,3.9,3.9,3.9,0,0,1,3.9,0Z" transform="translate(76.548 703.003)" fill="#e10000"/>
    <path id="icons8_returned_mail" d="M31.557,29.99a.218.218,0,0,1,.159.371l-.9.94h2.054a1.528,1.528,0,0,1,0,3.055H30.686v-.436h2.182a1.091,1.091,0,0,0,0-2.182H30.814l.9.94a.218.218,0,1,1-.315.3L30,31.52l1.4-1.46A.218.218,0,0,1,31.557,29.99Z" transform="translate(48.283 674.314)" fill="#e10000"/>
  </g>
</svg>
