<svg xmlns="http://www.w3.org/2000/svg" width="16.387" height="19.508" viewBox="0 0 16.387 19.508">
  <path id="icons8_notification" d="M12.193,0a1.559,1.559,0,0,0-1.451,2.134A4.849,4.849,0,0,0,7.121,7.023c0,3.056-.75,4.447-1.463,5.231a6.205,6.205,0,0,1-1.012.853,2.368,2.368,0,0,0-.415.366A.9.9,0,0,0,4,14.046a1.574,1.574,0,0,0,.793,1.292,5.332,5.332,0,0,0,1.8.646,22.063,22.063,0,0,0,3.414.354,2.338,2.338,0,1,0,4.523.829,2.305,2.305,0,0,0-.158-.829,22.064,22.064,0,0,0,3.414-.354,5.332,5.332,0,0,0,1.8-.646,1.574,1.574,0,0,0,.792-1.292.9.9,0,0,0-.232-.573,2.369,2.369,0,0,0-.415-.366,6.205,6.205,0,0,1-1.012-.853c-.713-.783-1.463-2.175-1.463-5.231a4.856,4.856,0,0,0-3.621-4.889A1.559,1.559,0,0,0,12.193,0Zm0,.78a.78.78,0,1,1-.78.78A.774.774,0,0,1,12.193.78ZM13.108,2.8a4.008,4.008,0,0,1,3.377,4.219c0,3.187.811,4.824,1.658,5.755a6.943,6.943,0,0,0,1.134.963,2.223,2.223,0,0,1,.293.244c.047.053.037.049.037.061,0,.244-.113.422-.439.634a4.7,4.7,0,0,1-1.536.549,29.255,29.255,0,0,1-5.438.378,29.255,29.255,0,0,1-5.438-.378,4.7,4.7,0,0,1-1.536-.549c-.326-.212-.439-.39-.439-.634,0-.012-.011-.008.037-.061a2.221,2.221,0,0,1,.293-.244,6.944,6.944,0,0,0,1.134-.963C7.091,11.847,7.9,10.21,7.9,7.023a4,4,0,0,1,3.377-4.206,1.533,1.533,0,0,0,.914.3A1.517,1.517,0,0,0,13.108,2.8ZM10.852,16.362c.437.009.882.024,1.341.024s.9-.015,1.341-.024a1.583,1.583,0,0,1,.219.8,1.561,1.561,0,1,1-2.9-.8Z" transform="translate(-4)" fill="#012840"/>
</svg>
