<svg xmlns="http://www.w3.org/2000/svg" width="28" height="20" viewBox="0 0 28 20">
  <g id="icons8_visa_1" transform="translate(-3 -9)">
    <path id="Path_756" data-name="Path 756" d="M31,26.333A2.667,2.667,0,0,1,28.333,29H5.667A2.667,2.667,0,0,1,3,26.333V11.667A2.667,2.667,0,0,1,5.667,9H28.333A2.667,2.667,0,0,1,31,11.667Z" fill="#1565c0"/>
    <path id="Path_757" data-name="Path 757" d="M12.833,19l-1.751,5.221s-.445-2.209-.489-2.486c-1-2.274-2.467-2.147-2.467-2.147l1.733,6.745h2.107L14.881,19ZM14.5,26.333h1.914L17.573,19H15.635ZM28.047,19H26.033l-3.14,7.333h1.9l.392-1.047h2.4l.2,1.047H29.53Zm-2.33,4.885,1.042-2.771.545,2.771Zm-5.429-2.748c0-.4.332-.7,1.284-.7a3.02,3.02,0,0,1,1.327.449l.311-1.539A5.843,5.843,0,0,0,21.416,19c-2.013,0-3.051.963-3.051,2.181,0,2.2,2.653,1.9,2.653,3.034,0,.194-.154.643-1.259.643a4.1,4.1,0,0,1-1.839-.406l-.33,1.477a4.5,4.5,0,0,0,2.078.4c1.373,0,3.277-1.027,3.277-2.5C22.945,22.057,20.288,21.929,20.288,21.137Z" transform="translate(-1.709 -3.333)" fill="#fff"/>
    <path id="Path_758" data-name="Path 758" d="M9.886,23.019l-.644-3.165a1.183,1.183,0,0,0-1.049-.686H5.233S9.007,20.283,9.886,23.019Z" transform="translate(-0.744 -3.389)" fill="#ffc107"/>
  </g>
</svg>
