<svg xmlns="http://www.w3.org/2000/svg" width="12.759" height="16.303" viewBox="0 0 12.759 16.303">
  <path id="icons8_trash_can_1" d="M14.8,2A1.068,1.068,0,0,1,15.86,3.063v.709h2.781a.321.321,0,0,1,.111,0H19.4a.354.354,0,1,1,0,.709H19.05V17.24A1.068,1.068,0,0,1,17.987,18.3H8.772A1.068,1.068,0,0,1,7.709,17.24V4.481H7.354a.354.354,0,1,1,0-.709H8a.354.354,0,0,1,.116,0H10.9V3.063A1.068,1.068,0,0,1,11.962,2Zm0,.709H11.962a.353.353,0,0,0-.354.354v.709h3.544V3.063A.353.353,0,0,0,14.8,2.709Zm3.544,1.772H15.566a.354.354,0,0,1-.116,0H11.313a.354.354,0,0,1-.116,0H8.418V17.24a.353.353,0,0,0,.354.354h9.215a.353.353,0,0,0,.354-.354Zm-2.83,1.767a.354.354,0,0,1,.349.359v8.861a.354.354,0,1,1-.709,0V6.607a.354.354,0,0,1,.36-.359Zm-2.127,0a.354.354,0,0,1,.349.359v8.861a.354.354,0,1,1-.709,0V6.607a.354.354,0,0,1,.36-.359Zm-2.127,0a.354.354,0,0,1,.349.359v8.861a.354.354,0,1,1-.709,0V6.607a.354.354,0,0,1,.36-.359Z" transform="translate(-7 -2)" fill="#e80000"/>
</svg>
