<svg xmlns="http://www.w3.org/2000/svg" width="22.085" height="17.44" viewBox="0 0 22.085 17.44">
  <path id="icons8_upload_to_cloud" d="M12.81,4.531a5.773,5.773,0,0,0-5.19,3.327,3.041,3.041,0,0,0-1.725-.594,3.071,3.071,0,0,0-3.051,2.926,4.238,4.238,0,0,0,1.422,8.241H7.951a.442.442,0,1,0,0-.883H4.265a3.388,3.388,0,0,1-.9-6.653.442.442,0,0,0,.317-.442c0-.062,0-.093,0-.1A2.216,2.216,0,0,1,7.468,8.8a.442.442,0,0,0,.718-.152,4.927,4.927,0,0,1,9.552,1.7,4.854,4.854,0,0,1-.041.607.442.442,0,0,0,.428.5h.028a3.051,3.051,0,0,1,0,6.1H14.135a.442.442,0,1,0,0,.883h4.017A3.941,3.941,0,0,0,22.085,14.5a3.894,3.894,0,0,0-3.492-3.837c.007-.107.028-.207.028-.318A5.82,5.82,0,0,0,12.81,4.531Zm-1.767,7.537-.317.3L8.517,14.58a.449.449,0,1,0,.635.635L10.6,13.766v7.758a.442.442,0,1,0,.883,0V13.766l1.449,1.449a.449.449,0,1,0,.635-.635L11.36,12.372Z" transform="translate(0 -4.531)" fill="#CC3333"/>
</svg>
