<svg xmlns="http://www.w3.org/2000/svg" width="12.984" height="12.398" viewBox="0 0 12.984 12.398">
  <g id="Group_324" data-name="Group 324" transform="translate(-298.653 -609.947)">
    <path id="icons8_online_shop" d="M4.18,4a.89.89,0,0,0-.885.885V6.03A9.706,9.706,0,0,0,3,7.984a1.921,1.921,0,0,0,.294,1.107v7.3H5.311a.3.3,0,0,0,.1,0H9.442a.3.3,0,0,0,.1,0h4.035a.3.3,0,0,0,.1,0h2.019v-7.3a1.921,1.921,0,0,0,.294-1.107,9.706,9.706,0,0,0-.3-1.954V4.885A.89.89,0,0,0,14.8,4Zm0,.59H14.8a.29.29,0,0,1,.3.3v.885H13.673a.3.3,0,0,0-.1,0H11.607a.3.3,0,0,0-.1,0H9.542a.3.3,0,0,0-.1,0H7.476a.3.3,0,0,0-.1,0H5.41a.285.285,0,0,0-.1,0H3.885V4.885A.29.29,0,0,1,4.18,4.59Zm.3.3a.3.3,0,1,0,.3.3A.3.3,0,0,0,4.475,4.885Zm.885,0a.3.3,0,1,0,.3.3A.3.3,0,0,0,5.361,4.885Zm.885,0a.3.3,0,1,0,.3.3A.3.3,0,0,0,6.246,4.885ZM3.829,6.361H5.066V8.677a1,1,0,0,1-.738.339.586.586,0,0,1-.5-.206A.3.3,0,0,0,3.8,8.784L3.8,8.778c-.006-.008-.013-.015-.02-.024a1.394,1.394,0,0,1-.189-.771A8.65,8.65,0,0,1,3.829,6.361Zm1.826,0H7.131V8.677a.971.971,0,0,1-1.475,0Zm2.066,0H9.2V8.677a.971.971,0,0,1-1.475,0Zm2.066,0h1.475V8.677a.971.971,0,0,1-1.475,0Zm2.066,0h1.475V8.677a.971.971,0,0,1-1.475,0Zm2.066,0h1.236a8.651,8.651,0,0,1,.239,1.623,1.447,1.447,0,0,1-.165.727.3.3,0,0,0-.114.15.607.607,0,0,1-.458.156,1,1,0,0,1-.738-.339ZM5.361,9.18a1.569,1.569,0,0,0,1.033.427A1.569,1.569,0,0,0,7.426,9.18a1.569,1.569,0,0,0,1.033.427A1.569,1.569,0,0,0,9.492,9.18a1.462,1.462,0,0,0,2.066,0,1.462,1.462,0,0,0,2.066,0,1.568,1.568,0,0,0,1.033.427,1.344,1.344,0,0,0,.443-.074V15.8c-.022,0-11.212,0-11.213,0V9.532a1.344,1.344,0,0,0,.443.074A1.569,1.569,0,0,0,5.361,9.18Z" transform="translate(295.653 605.947)"/>
    <path id="icons8_heart_-_Outline" data-name="icons8_heart - Outline" d="M3.477,6.75a1.708,1.708,0,0,1,1.243.545A1.708,1.708,0,0,1,5.963,6.75,1.729,1.729,0,0,1,7.69,8.477c0,1.52-1.358,2.421-2.257,3.017-.228.151-.425.281-.564.4l-.149.127-.15-.127c-.138-.115-.335-.246-.563-.4-.9-.6-2.257-1.5-2.257-3.017A1.729,1.729,0,0,1,3.477,6.75Zm1.243.89-.086-.106a1.494,1.494,0,0,0-2.661.943c0,1.4,1.3,2.261,2.157,2.831a7.112,7.112,0,0,1,.583.412l.006.005.005,0a7.1,7.1,0,0,1,.584-.413c.859-.57,2.157-1.43,2.157-2.831a1.494,1.494,0,0,0-2.661-.943ZM3.477,7a1.475,1.475,0,0,1,1.231.664l.012.018.012-.018a1.477,1.477,0,0,1,2.709.816c0,1.353-1.211,2.174-2.1,2.773-.207.14-.4.272-.557.395L4.72,11.7l-.069-.055c-.155-.122-.35-.255-.557-.395C3.21,10.651,2,9.83,2,8.477A1.48,1.48,0,0,1,3.477,7ZM4.72,8.079l-.2-.292a1.254,1.254,0,0,0-2.3.691c0,1.234,1.108,1.985,2,2.588.181.123.353.239.5.351.147-.112.32-.228.5-.351.89-.6,2-1.354,2-2.588a1.254,1.254,0,0,0-2.3-.692Z" transform="translate(300.475 609.284)"/>
  </g>
</svg>
